<svg xmlns="http://www.w3.org/2000/svg" viewBox="0 0 774.64 559.24"><title>frame</title><g id="Layer_2" data-name="Layer 2"><g id="Layer_1-2" data-name="Layer 1"><path d="M478.08,548.5l-.08.11s0,0,0,0S478.05,548.56,478.08,548.5Z"/><path d="M774.34,195c-.38-5.81-2.18-11.36-3.78-16.92a84,84,0,0,0-6.32-15.25c-2.1-3.69-4.41-7.26-6.86-10.73-2.25-3.25-4.82-6.27-7.37-9.29a110.74,110.74,0,0,0-8.27-9.05c-2.17-1.77-4.63-3.14-6.88-4.81a59.65,59.65,0,0,0-6.72-4.28,103.84,103.84,0,0,0-18.54-7.5A64.39,64.39,0,0,0,692,114.58c-2.84-.14-5.68-.16-8.52-.22a74.69,74.69,0,0,0-7.63,0c-5.5.73-11.23,2-15.61,5.63a62.1,62.1,0,0,0-6.28,6.18,21.78,21.78,0,0,0-6.82,9.89,43.58,43.58,0,0,0-2.51,10.44c-.18,3-.39,5.92-.63,8.89-.42,6.64,1,13.18,1.59,19.77.23,2.66.67,5.29,1.08,7.92.42,3.06.63,6.13,1,9.19.41,5.68,1.43,11.15,1.93,16.75.36,3.87.92,7.73,1.28,11.6s.44,8,.72,12c.42,6.71,1,13.42.88,20.14,0,9.87-.68,19.71-1.67,29.52-.26,2.55-.55,5.1-.81,7.65-.42,3.36-1.28,6.64-1.9,10a136.1,136.1,0,0,1-3.44,14.79,97.36,97.36,0,0,1-3.7,12.42c-.88,2.46-1.62,5-2.61,7.39s-2.13,4.49-3.18,6.74c-1.65,3.49-3.16,7.06-5.46,10.18,2.19-6,4-12.07,5.95-18.14.92-2.68,1.91-5.34,2.76-8,1.37-3.95,2.23-8.14,3.21-12.18A88.91,88.91,0,0,0,644.12,302c1.63-7.43,2.13-15,2.81-22.59a167.9,167.9,0,0,0,1.31-17c-.16-8.54,0-17-.3-25.5-.15-3.49-.48-7-.91-10.45-.4-4.92-.84-9.83-1.48-14.72-1-6.61-1.4-13.26-2.08-19.91-.37-4-.75-8.05-1-12.09s-.85-8.32-1-12.51c-.41-6.83-1-13.67-1.2-20.52A83.23,83.23,0,0,0,639,131.4c-1.4-5.41-2.37-10.94-4.08-16.26a50.24,50.24,0,0,0-6.43-12.67,39.34,39.34,0,0,0-7-8c-3.25-2.69-7.3-4.14-11.15-5.75A46.63,46.63,0,0,0,598,85.86c-3-.2-6-.07-8.94,0a62.87,62.87,0,0,0-15.1,2.42,124.54,124.54,0,0,0-14.7,5.78A107.56,107.56,0,0,0,529.8,113.9a211.05,211.05,0,0,0-28.41,30.52c-3.59,4.61-7.36,9.1-10.62,14-1.57,2.34-3,4.77-4.54,7.14a107.38,107.38,0,0,0-7.55,12.84,210.93,210.93,0,0,0-10.48,24.39c-2.3,6.73-4.93,13.37-6.55,20.32a210.39,210.39,0,0,0-3.88,29.47c-.16,3.51-.94,7-1.24,10.43h-.95a44.94,44.94,0,0,0-12.51,2.81,44.25,44.25,0,0,0-10.54,6.31,56,56,0,0,0-9.06,8.62,44.77,44.77,0,0,0-11.21,21.51c-.89,3.17,3.09,4.31,3.69,1a39.14,39.14,0,0,1,3.83-10.73,34.94,34.94,0,0,1,5.45-8c1.54-1.71,3.08-3.43,4.66-5.11a55.12,55.12,0,0,1,12.47-9.08,39.77,39.77,0,0,1,12.75-3.45c5.83-.33,11.59.7,17.28,1.83,3.91,1,7.74,2.38,11.57,3.66,2.77,1,5.74,2,8.71,3.14,4,1.62,7.82,3.56,11.7,5.41,4.06,2.19,11.52,5.22,10.93,10.84l-.08.2c-.19.49-.74.36-1.16.35a24.13,24.13,0,0,1-2.93-.46c-3.49-.72-7-1.19-10.55-1.58-2.27-.38-4.53-.88-6.81-1.17a41.76,41.76,0,0,0-8.06.19c-4.52.76-9.16,1.43-13.4,3.25-9.06,4-17.1,10.26-22.2,18.85a61.21,61.21,0,0,0-4.42,7.91,19.73,19.73,0,0,0-1.64,4.31c-.69,3.55,1.58,6.23,5.19,5.65a8.47,8.47,0,0,0,3.33-1.84c2-1.59,3.87-3.3,5.73-5,2.85-2.79,5.75-5.51,8.65-8.24,2.71-2.58,5.21-5.4,8.25-7.62a58.49,58.49,0,0,1,9.42-5.81,24.75,24.75,0,0,1,8.15-2A30.5,30.5,0,0,1,506,301.34a34.93,34.93,0,0,1,13,9.25,46.13,46.13,0,0,1,4.8,5.64,38.32,38.32,0,0,1,5,7.57,14.65,14.65,0,0,1,1.53,7.23c-.11,1-.11,2.22-.91,3a38.37,38.37,0,0,1-7.11-3.48c-3.2-1.92-6.16-4.26-9.64-5.68a32.29,32.29,0,0,0-8.18-2.33c-2.4-.35-4.79-.84-7.2-1.13a72.69,72.69,0,0,0-16.87.64,44.63,44.63,0,0,0-22.33,12.17c-1.78,2-2.93,4.87-2.2,7.57.31,1.67,2.06,2.15,3.49,2.54a16.66,16.66,0,0,0,5.81.18c1.34-.21,2.69-.38,4-.62,6.47-1.48,12.09-5.46,18.65-6.69a41.76,41.76,0,0,1,16.22,0,31.66,31.66,0,0,1,13,6.58,51.65,51.65,0,0,1,9.11,11.53,55.94,55.94,0,0,1,5.23,11.62c.69,2.24,1.86,4.87,2.74,7.15a26,26,0,0,1,1.34,6.48c.11,3.63.09,7.5-1.51,10.85-.47.71-.84,2-1.86,1.94a3,3,0,0,1-1.8-1.23c-1.08-1.31-2.06-2.69-3.13-4a85.37,85.37,0,0,0-8.78-10.2,47,47,0,0,0-9.12-6.79c-3.37-2-7-3.52-10.45-5.3-3.84-1.91-7.56-4.31-11.54-6-5.9-2.43-12.64-2.06-18.69-.35-5.6,1.43-9.57,5.56-7.84,11.58,1.55,4.51,6.83,6.81,11.23,7.47a39.42,39.42,0,0,0,7.79,1c1.36,0,2.72-.1,4.07-.13,7.07-.27,11.35,1.34,17.49,4.56a26.29,26.29,0,0,1,8.85,7.06,51.58,51.58,0,0,1,9.56,15.83c2.19,6.55,2.19,13.59,2.87,20.41a70.39,70.39,0,0,1-1.2,17.32c-.86,4.07-2.46,7.93-3.74,11.87-.76,2.14-1.65,4.23-2.35,6.39a10.65,10.65,0,0,1-2.33,4.06,5.71,5.71,0,0,1-.48-2.47c-.06-1.12-.06-2.25-.1-3.37-.08-2.15-.14-4.3-.39-6.43-.54-4.5-2.12-8.78-3-13.19-1.22-5.1-1.78-10.57-3.78-15.5-1.81-4.11-5.3-9.23-9.29-11.41-4-2-9.44-1.66-11.9,2.47-3.36,4.3-3.84,10.37-2,15.41,1.49,3.42,3.94,6.29,6,9.34,1.57,2.5,3.3,4.9,4.79,7.45,1.7,3.15,3.28,6.38,4.78,9.64a29.83,29.83,0,0,1,2,5.51c1.07,3.44,2.36,6.86,2.8,10.45a51.42,51.42,0,0,1,.08,9.61,69.42,69.42,0,0,1-1.22,10.35,87.12,87.12,0,0,1-3,13.92,149.33,149.33,0,0,1-9.3,23.62c-2.18,4.84-4.14,9.78-6.47,14.55-1.41,2.81-2.62,5.71-4.21,8.43a7.29,7.29,0,0,1-1.37,2.08c-1.78-.11-2-2.6-2.76-3.94a21.3,21.3,0,0,0-2.62-4.46c-.56-.72-1.2-1.38-1.81-2.06-1.39-1.55-2.69-3.6-4.33-5-2.37-1.86-4.36-4.16-6.71-6a75.32,75.32,0,0,1-17.47-17.53,53.62,53.62,0,0,1-7.14-18,38.27,38.27,0,0,1-.42-9.58c.09-2.46.12-4.93.3-7.39,1-8.77,4.75-17,9-24.68,3.22-6.08,7.23-12,8.33-18.92.78-6.59-2.06-11.24-9.2-9.42a18.28,18.28,0,0,0-7.88,4.8,31.45,31.45,0,0,0-7,9c-1.16,2.55-2.32,5.12-3.23,7.76a79,79,0,0,0-2,8.14c-1.37,7.19-1.15,14.5-1,21.77.08,6,.09,11.95.32,17.92,0,2.69.73,5.29.92,8s.51,5.54-.36,8.13c-1.38-.41-2.39-1.57-3.67-2.2-2.05-1.25-4.19-2.36-6.36-3.41-3.11-1.25-6.34-2.23-9.41-3.59a65.4,65.4,0,0,1-6.08-2.45c-2.39-1.13-4-3.39-5.87-5.22-1.41-1.77-2.89-3.48-4.19-5.33a45.21,45.21,0,0,1-3.72-7.74c-1.2-3.17-1.12-6.6-.84-9.92a67.71,67.71,0,0,1,1-8.63A65.58,65.58,0,0,1,390.05,448a95.89,95.89,0,0,1,5.14-9.65,54.39,54.39,0,0,1,5-7.85c3.16-4.24,5.65-9.1,8.67-13.54,2.37-3.5,5.72-6.19,8.09-9.7A36.84,36.84,0,0,0,423,396.31c.91-3.13.09-6.95-3.22-8.23s-7.92-.1-11.22,1.28c-4.75,2-8.57,5.48-12.77,8.35-7.33,5.52-12.75,13.05-17.76,20.63a107.19,107.19,0,0,0-6,10.44,60.3,60.3,0,0,0-3.49,9.06A64.57,64.57,0,0,0,365,450.57c-.65,5.73-.13,11.52,0,17.27.18,7,.58,14.06,1.15,21.07a33.78,33.78,0,0,1,.48,4.81,12.49,12.49,0,0,1-1,4.13c-2.22-.69-4.07-2.14-6.08-3.26s-3.82-2.44-5.67-3.76-3.76-2.31-5.66-3.43c-4-2.51-8.38-4.31-12.37-6.82-3.35-1.94-6.39-4.31-9.55-6.53a67.25,67.25,0,0,1-16.39-16.67c-3.8-5.68-7.61-11.61-9.14-18.35a45.75,45.75,0,0,1,.3-17.87,52.35,52.35,0,0,1,4.83-12.48,46.62,46.62,0,0,1,3.72-5.22,32.69,32.69,0,0,1,5.07-6,102.25,102.25,0,0,1,9.23-6.78,35.19,35.19,0,0,1,4.77-3.16,221,221,0,0,1,21.19-8.74c1.31-.44,2.64-.81,4-1.18,2.42-.69,4.75-1.65,7.2-2.23,4.56-.88,9-2.44,13.58-3.05,2.52-.48,5.12-.44,7.61-1.07a42.35,42.35,0,0,0,7.14-2.27c1.65-.7,3.55-1.11,4.83-2.45.82-1,.56-2.43.12-3.53-.65-1.47-2.11-2.32-3.44-3.1-4.05-2.26-8.93-2.19-13.41-1.6a83.05,83.05,0,0,0-11.82,2.07c-9,1.71-17.83,4.45-26.6,7.18-5.11,1.47-10.21,3-15.19,4.85a108.76,108.76,0,0,0-15,7.14,67.58,67.58,0,0,0-13.54,9.19c-1.53,1.34-3.2,2.51-4.64,4a50.26,50.26,0,0,0-3.76,4.23,25.76,25.76,0,0,0-1.87,3.52c-1.78,3.3-3.39,6.55-5.21,9.86-1.84,2.89-3.26,6.12-5.86,8.44-1.67-1.69-2.37-4.11-3.32-6.25a77.93,77.93,0,0,1-3.9-8.63c-.83-2.71-1.78-5.37-2.81-8-3-7.21-4.55-15.28-.11-22.26a34.51,34.51,0,0,1,8.66-8.68c1.76-1.13,3.62-2.11,5.45-3.13s3.4-1.84,5.11-2.73c2.83-1.38,5.84-2.31,8.76-3.48,9.08-3.09,18.6-4.65,28.14-5.66,7.79-.69,15.67-.43,23.5-.48,5.79,0,11.58-.43,17.37-.56,3.52-.13,7-.77,10.54-.83,2,0,4.06.23,6.08.12a42.74,42.74,0,0,0,7.36-1.26c2-.54,5.09-.64,5.65-3.12.15-4.39-4.63-6.84-8.36-7.69-4.25-1.12-8.63-1.38-13-2a162.27,162.27,0,0,0-19.7-1.57c-3.61,0-7.2.24-10.79.51-4.09.16-8.18.52-12.24,1-4.22.51-8.46.89-12.63,1.73-2.75.64-5.49,1.35-8.23,2S300,339.13,297.3,340s-5.17,2.12-7.77,3.12a83.81,83.81,0,0,0-11.26,5c-3.59,1.82-6.55,4.57-9.73,7a39.11,39.11,0,0,1-7.39,4c-.79.07-1-.26-1.1-1a15.34,15.34,0,0,1-.14-3.52,95.43,95.43,0,0,1,1-10.81,47.43,47.43,0,0,1,3.81-12.57,48.16,48.16,0,0,1,3.69-7.09,35.59,35.59,0,0,1,2.93-4.45,43.19,43.19,0,0,1,6.28-5.81,45.23,45.23,0,0,1,9.88-5.3,38.25,38.25,0,0,1,9.53-1.82c2.87-.27,5.75-.57,8.64-.59,5.79.08,11.47,1.41,17.15,2.43a109.06,109.06,0,0,1,15.24,4.47c2.49.81,5,1.45,7.48,2.34,1.21.39,2.43.75,3.63,1.15,2.67.85,5.32,2.07,8.16,2.11,3.31-.09,7.14-.35,9.4-3.11,2-2.84-1.7-5.61-3.59-7.4a47.86,47.86,0,0,0-4.71-3.54,37,37,0,0,0-9.24-4.83,72.09,72.09,0,0,0-11-3.49,128.72,128.72,0,0,0-19.49-3.55,74.63,74.63,0,0,0-7.9-.92,35.3,35.3,0,0,0-11,1.37c-2,.5-3.93,1.05-5.93,1.47a10.68,10.68,0,0,1-4.46.23c3.2-5.24,9.36-7.39,14.35-10.52a55.33,55.33,0,0,1,13.05-5.72c3.05-.81,6.18-1.27,9.27-1.9,7.65-1.31,15.45-.75,23.15-.34,4.4.37,8.81.72,13.16,1.5,2.12.46,4.2,1,6.28,1.67a72.18,72.18,0,0,1,10.4,3.57,57.08,57.08,0,0,1,17.07,12.63,70.58,70.58,0,0,1,6.66,7.49c2.41,3.4,5.07,6.61,7.4,10.06,3.43,5.54,6.32,11.39,9.62,17a338.42,338.42,0,0,1,16.38,30.43c3.24,7.47,6.72,14.84,9.9,22.34,4.7,12.1,10,24,14.3,36.22,3.76,12.27,7.72,24.5,10.85,36.95,1.36,5.25,2.41,10.58,3.4,15.91q2.58,12.1,4.62,24.31a90.15,90.15,0,0,1-.31,27.29c-.62,4.09-1.16,8.2-1.67,12.3-.52,3.83-1.37,7.62-1.75,11.46a1.56,1.56,0,0,0,1.43,1.64,1.34,1.34,0,0,0,1.08-.57c1.14-1.85,1.38-4.08,1.84-6.17.81-3.74,1.32-7.53,1.8-11.32,1-6.83,2.22-13.65,2.25-20.57a95,95,0,0,0-2.08-21.33c-1-5.44-2-10.87-3.18-16.27-2.79-16.35-7.65-32.2-12.56-48-3.71-12.81-9.21-25-14.16-37.36-2.77-7.36-6.1-14.48-9.32-21.64-3.12-7.42-6.73-14.52-10.51-21.64-2.49-4.86-5.2-9.6-8.06-14.25-2.7-4.67-5.35-9.37-7.91-14.11a55.45,55.45,0,0,0-4.53-7.2c-3.08-4-5.88-8.24-9.28-12q-2.69-2.82-5.41-5.6c-.93-.92-1.89-1.81-2.88-2.66.1-.28.25-.54.37-.81,1.24-2.41,2.91-4.55,4.35-6.83,3.75-6.37,7.18-12.94,10.41-19.59a136.77,136.77,0,0,0,6-16.08c1.28-4.31,2-8.76,2.91-13.17a127.87,127.87,0,0,0,1.37-22.38,90.28,90.28,0,0,0-1.21-16.74,144.09,144.09,0,0,0-5.42-21.63,99.41,99.41,0,0,0-8-18.65,48.2,48.2,0,0,0-7.13-9.55,78.31,78.31,0,0,0-13.45-10.38c-3.25-2-6.61-3.67-10-5.37a35.73,35.73,0,0,0-8.19-3.17,85.77,85.77,0,0,1-15.18-5.27,8.64,8.64,0,0,1-4.24-4.13,4.6,4.6,0,0,1-.1-4.58,10.09,10.09,0,0,1,4.05-3.88,32,32,0,0,1,5.76-1.85c5-1.41,10.5-2.3,15.47-.2,3.42,1.1,6.4,3.17,9.53,4.88a92,92,0,0,1,10,6.42c8.49,6.57,15.17,15.08,21.12,23.95,6.37,9.41,11.65,19.67,14.65,30.68,1.28,3.64.95,7.8,3.15,11.1,3.39,3.86,7.35,0,9.92-2.73,8.39-8.89,16.58-25.29,17.34-37.56a58.93,58.93,0,0,0,.06-8.19c-.24-2.57-.82-5.09-1.2-7.63-1.05-5.19-2.16-10.45-4.39-15.28a58.18,58.18,0,0,0-9.11-13.56,48.94,48.94,0,0,0-6.05-6.08,40.25,40.25,0,0,0-6.56-4.41,50.06,50.06,0,0,0-14-5.77c-4.18-1.07-8.27-2.63-12.64-2.79-2.23-.1-4.08-.25-6.45-.26-1.55-.07-3.2.2-4.69-.32-.95-.59-2.12-1.24-2.29-2.45-1.14-6,1.41-7.68,6.69-9.45a31,31,0,0,1,9-1.63c1.81-.08,3.63-.12,5.43-.06a36.39,36.39,0,0,1,5.88,1.47c14,3.47,23.87,12.74,32.31,24,2.73,4.42,5.49,8.82,8,13.37,1.47,2.86,2.38,5.59,3.59,8.62a16.7,16.7,0,0,0,2.26,4.33c.91,1.4,2.92,2.94,4.47,1.51,1-1.07,1.2-2.6,1.63-3.94,2.63-8.07,3.63-13.74,1.75-22.2a74,74,0,0,1-1.33-9c-.13-2.86-.38-5.7-.79-8.54a78.68,78.68,0,0,0-7.12-24.33A48,48,0,0,0,451.55,32.9a41.38,41.38,0,0,0-6.42-5A33.8,33.8,0,0,0,436,23.1a43.54,43.54,0,0,0-7.25-1.47,42.73,42.73,0,0,0-11.41,0,40.06,40.06,0,0,0-11.46,3.66,109.39,109.39,0,0,0-19.12,13.72c-3.93,3.47-7.24,7.56-11.07,11.13A9.52,9.52,0,0,1,374,51.44c-.79.29-2.34.74-3,.2-1.34-2.18.63-6.07,1.62-8.13,1.65-3.59,4.75-6.5,7.61-9.17A47.86,47.86,0,0,1,399.55,23.4a99,99,0,0,1,14.65-2.19,44.44,44.44,0,0,0,8.05-1.11c2.58-.76,7.15-3.11,4.67-6.29-2.73-3-6.85-4.19-10.69-5.1a36.39,36.39,0,0,0-14,.35c-3.46.42-6.78,1.43-10.17,2.18A81.44,81.44,0,0,0,381,14.66a46.21,46.21,0,0,0-6.91,3.68,37.61,37.61,0,0,0-7.69,6.07,62.2,62.2,0,0,0-10.29,15.14c-1.76,3.25-3.55,6.48-5.11,9.83-1.5,2.79-2.66,5.73-4.33,8.43-2.25,4.1-4.87,8-7.48,11.83-2.24,3.68-4.1,7.58-6,11.43a125.33,125.33,0,0,0-5.68,15.57,165.35,165.35,0,0,0-5,16.27,173.1,173.1,0,0,0-4.73,20.63c-.57,3.63-1.11,7.25-1.71,10.86-.38,2.69-.63,5.39-1.07,8.07-.73,3.67-1.25,7.38-1.8,11.09-1,6.47-1.6,13-2.5,19.47-.35,3.59-.45,7.21-1,10.78-.31,3.85-.93,7.67-1.24,11.52-.39,3.35-.22,6.73-.91,10-.63,3.94-.8,7.95-1.53,11.87-.6,3.45-1.62,6.81-2.42,10.21A39.44,39.44,0,0,0,302.2,243a24.64,24.64,0,0,1-3.29,8.09c-.37-4.95.43-9.8,1.2-14.66.84-5.09,1.61-10.19,2.63-15.25,1.18-6.08,2.18-12.2,2.88-18.36.43-4.23.94-8.46,1.25-12.7.31-5.27.46-10.54,1.06-15.78,1-11.48,2.49-22.89,3.9-34.31.49-4.89,1.43-9.72,2.17-14.57a187.6,187.6,0,0,1,5.82-25.27,83.28,83.28,0,0,1,6.95-17c2.38-4.43,5.29-8.36,7.91-12.69a42.45,42.45,0,0,0,4.39-9.35A70,70,0,0,0,342.89,44a43.76,43.76,0,0,0,.26-7.76,23.23,23.23,0,0,0-2.31-7.48c-1.44-2.64-2.65-5.41-4.29-7.94a39.54,39.54,0,0,0-10.26-10.61c-3-2.1-6.55-3.32-9.9-4.81-4.07-1.85-8.47-2.55-12.82-3.41C294-.14,284-.95,274.41,1.51A62.79,62.79,0,0,0,265,4.44a40.05,40.05,0,0,0-10.39,5.67,22.38,22.38,0,0,0-4.68,5.13c-2.47,3.35,2.26,4,4.64,3.93s4.64-.47,7-.73a33.49,33.49,0,0,1,6.92-.54,39.09,39.09,0,0,1,7.35,1.48,86.12,86.12,0,0,1,14.9,8.07A42.54,42.54,0,0,1,300,35.58a34.79,34.79,0,0,1,5.37,7.66,30.18,30.18,0,0,1,1.36,3.33,22.91,22.91,0,0,1,.72,2.47,1,1,0,0,1-.13.93A3.45,3.45,0,0,1,304.83,51a8.13,8.13,0,0,1-5.23-1.68c-2.16-1.46-3.5-3.77-5.2-5.69-1.23-1.46-2.49-2.91-3.83-4.27-8.63-8.93-21.42-12.33-33.53-12.6a76.13,76.13,0,0,0-11.3.34,62.1,62.1,0,0,0-15.18,4.25,80.08,80.08,0,0,0-8.71,3.78c-3.52,1.65-7.24,3.33-9.55,6.59a84.52,84.52,0,0,0-12.25,19.62q-2.19,5.28-3.86,10.76a78,78,0,0,0-3.84,27.63c.05,2.4.05,6.29,3,6.82,1.94,0,3.85-2.45,5.19-3.73.87-.89,1.8-1.7,2.67-2.59,2.84-3,5.22-6.48,8.15-9.44.84-.91,1.58-1.91,2.37-2.86,1.2-1.3,2.55-2.44,3.85-3.63,2.82-2.32,5.47-5,8.38-7.26a38.56,38.56,0,0,1,6.6-4.34,43.76,43.76,0,0,1,11.15-4.8A53.32,53.32,0,0,1,259.17,65c4-.18,8-.51,12.12-.37A35.4,35.4,0,0,1,277.57,66a36.6,36.6,0,0,1,8,3,35,35,0,0,1,9.85,7c1.44,1.77,3.15,4,2.74,6.37a4.69,4.69,0,0,1-3,1.82c-5.95,1.14-11.55-2-17.37-2.74a57.69,57.69,0,0,0-13.34-1.74,47.29,47.29,0,0,0-8.58,0c-9.14.91-18,3.65-26.58,6.84a30.13,30.13,0,0,0-5.91,3.2c-1.82,1.23-3.72,2.39-5.46,3.78s-3.39,3.08-5.09,4.6a57.85,57.85,0,0,0-5.51,5,37,37,0,0,0-3.92,5.7,53.89,53.89,0,0,0-7.53,18.48c-1.19,5.18-2.81,10.3-2.69,15.67a34.27,34.27,0,0,0,.72,7.88A75,75,0,0,0,196.23,162c1.14,3.75,3.13,7.12,4.88,10.6,1,2,1.84,4.19,3,6.17A44.53,44.53,0,0,0,208,184.6a8.42,8.42,0,0,0,3.76,2.44c3.58,1.09,4.33-3.48,5-6,.82-3.44,1-7,1.65-10.45.39-1.7.87-3.38,1.31-5.06.94-3.86,2.46-7.54,3.57-11.36a110,110,0,0,1,5.13-13.75c4.48-8.44,11.85-14.75,18.54-21.39a58,58,0,0,1,9.48-6,41.92,41.92,0,0,1,9.46-3.4,32.69,32.69,0,0,1,8.86-1.64,34.71,34.71,0,0,1,6-.16c5.42.4,12.42,6.1,12.08,11.93-.18,2.27-2.1,3.84-3.69,5.26a14.21,14.21,0,0,1-9.71,3.86,74.63,74.63,0,0,0-8.16,1.2,43.93,43.93,0,0,0-6.24,1.26,67.36,67.36,0,0,0-11.15,4.16A53.14,53.14,0,0,0,247,139c-2.34,1.35-4.17,3.35-6.15,5.15a45.77,45.77,0,0,0-10.31,13.1c-1.54,3.25-2.13,6.85-2.86,10.34a66.11,66.11,0,0,0-1.4,8.25,64.73,64.73,0,0,0,.05,7.88,42.81,42.81,0,0,0,2.2,9.88c1.61,4.1,3.42,8.11,5.22,12.11,1.72,3.78,4.38,7,7,10.12a39.3,39.3,0,0,0,3.76,4.28c-1.08,3.19-1.83,5.86-2.34,7.76-1.14,4.28-5,18.87-3.68,28a34.71,34.71,0,0,1,.41,5.78q0,1.65-.18,3c-5.63-5.35-12.54-8.39-20.22-10.06a49.49,49.49,0,0,0-18.28-.06,61.44,61.44,0,0,0-11.59,2.74c-5.63,2-11.36,3.93-17.35,4.48a51.68,51.68,0,0,0-11.65,2,11.78,11.78,0,0,0-4,1.73,1.39,1.39,0,0,0-.74.47c-1.69,1.81-1.84,4.5-2.65,6.76A55,55,0,0,1,150,279.2c-3.6,8.78-8.15,17.1-12.66,25.43-2.74,5.49-5.55,10.95-8.55,16.31-2.63,4.92-5,10-7.47,15-1.58,3.43-3,6.92-4.27,10.46a226.58,226.58,0,0,0-8,22.72c-1.19,4.11-2.47,8.2-3.45,12.36-.83,3.82-1.37,7.69-2,11.55-.84,5.84-1.24,11.74-1.59,17.63-.17,6.82.09,13.65.28,20.47.28,5.06.4,10.16.94,15.23a154,154,0,0,0,3.41,20.1,114,114,0,0,0,4.9,14.58,72.56,72.56,0,0,0,6,12.64c1.38,2.15,2.58,4.4,4,6.52s3.11,4.24,4.55,6.61a31.44,31.44,0,0,1,3.37,6.52,5.42,5.42,0,0,1-2.36-1.31,20.67,20.67,0,0,1-3.32-3.42c-3-3.13-4.64-7.08-6.38-11-1.94-4.45-4.47-8.6-6.32-13.1-1.29-2.62-2.47-5.29-3.52-8-2.16-5-4.16-10.13-5.83-15.36-.8-2.47-1.07-5.06-1.67-7.58-.8-4.13-1.78-8.23-2.27-12.41a115.33,115.33,0,0,1-.42-11.77c-.25-7.31-.06-14.65.16-22A129.76,129.76,0,0,1,100.51,385c2.14-8.07,4.37-16.11,6.89-24.07a294.84,294.84,0,0,1,11.74-30.88c2.26-5.17,5.08-9.9,7.83-14.88,5.23-8.93,9.87-18.19,14.77-27.31,2.55-4.74,5.26-9.68,7.42-14.65,2.71-6,3.77-10.13,1.75-16.68-1.13-3.65-3.31-6.86-5.46-10a56.14,56.14,0,0,0-4.85-6.33c-7.77-8.32-18.13-13.81-29-16.91A89.12,89.12,0,0,0,90.44,220a45.45,45.45,0,0,0-11.1.76A56.44,56.44,0,0,0,72,222.35a44.67,44.67,0,0,0-10.71,5.17,83.18,83.18,0,0,0-8.78,5.85c-6.29,4.24-11.5,9.82-16.4,15.56a142.75,142.75,0,0,0-9.43,13.57,144.55,144.55,0,0,0-8.18,14.3c-1.83,3.95-3.39,8-5.11,12A99.41,99.41,0,0,0,8,301.11c-1,3.19-2.37,6.41-2.66,9.78A3.06,3.06,0,0,0,6.21,313c2.8,2.43,7.91-1.3,10.48-2.86,2.1-1.55,4.36-2.84,6.52-4.29,1.24-.89,2.47-1.79,3.76-2.6,2.38-1.51,5.1-3.11,7.52-4.74A60.71,60.71,0,0,1,42.05,294a52.46,52.46,0,0,1,10.52-3.31,47.74,47.74,0,0,1,7.18-.42A48.81,48.81,0,0,1,74.44,293,57.91,57.91,0,0,1,92,301.19,15.71,15.71,0,0,1,97.49,308c.77,2.67-.74,4.3-3.4,4.3-4.77.11-8.89-2.62-13.06-4.56a39.86,39.86,0,0,0-11.44-3.57A100,100,0,0,0,50.71,304c-5.31.43-10.39,2.09-15.5,3.49-2.47.74-5,1.36-7.39,2.32a48.59,48.59,0,0,0-7,4,33.54,33.54,0,0,0-9.94,7.8,27,27,0,0,0-4.9,8.38A55.27,55.27,0,0,0,2.87,341c-.79,5.37-1.24,10.79-1.72,16.2C.89,361.86.47,366.32.08,371c-.15,2.74,0,5.5,0,8.25.25,6.63-.09,13.37,1.32,19.9.8,3.2,1.24,6.47,1.92,9.7.44,2.13.73,4.45,2.19,6.18,1.8,2.27,5.08,2.43,6.05-.6,1.52-4,1.84-8.36,3.07-12.47a102.4,102.4,0,0,1,4.19-10.79,127.27,127.27,0,0,1,8.48-15.91A86.3,86.3,0,0,1,37.8,361c3.37-3.27,6.58-6.75,10.39-9.52a32.83,32.83,0,0,1,5.15-3.33c2.84-1.82,5.8-3.43,8.8-5,2.78-1.21,5.69-2,8.57-2.94a40.38,40.38,0,0,1,9.79-2.09c2.81-.05,8.18.71,9.85,3.24.86,1.29.59,3,.17,4.4-.8,1.82-2.4,3.13-3.86,4.42-3.23,2.5-6.82,4.47-10.16,6.81-2,1.37-3.7,3-5.53,4.59-1.57,1.28-3.26,2.38-4.9,3.56-3.19,2.45-6,5.36-9.07,7.94-2.5,2.28-4.61,4.94-7.11,7.23a68.16,68.16,0,0,0-8.1,8.87c-3.7,4.3-6.65,9.17-9.92,13.79A52.75,52.75,0,0,0,28,410.46,66.76,66.76,0,0,0,24.88,418c-1.74,5-3.19,10.16-4.62,15.29A45.12,45.12,0,0,0,26.51,474c2,3.12,5.11,5.35,8,7.63,4,3.09,7.94,6.32,12.67,8.15,1.52.47,3.35,1.3,5,.85.64-.12,1.5-.45,1.52-1.2a7.36,7.36,0,0,0-.78-2.19c-.91-2.31-1.9-4.6-2.71-6.95-2.27-7.73-2.71-15.87-2.6-23.89a83.51,83.51,0,0,1,.86-11.29,139.63,139.63,0,0,1,4.07-16.36c2.14-7.49,6.65-17,12.64-22.08,3.29-2.5,6.76-5.22,10.9-6,3-.71,7.72-1.06,9,2.71.5,2.67-.65,5.31-1.32,7.86A52.57,52.57,0,0,1,79,422.81a151.19,151.19,0,0,0-6.89,13.7,124.86,124.86,0,0,0-6,19C65,461.69,63.43,468,63.81,474.33c.21,1.92.34,3.85.58,5.77s.8,3.8,1.22,5.7a33.18,33.18,0,0,0,4,10.09A55.41,55.41,0,0,0,89,514.74c1.77.86,3.47,1.85,5.21,2.75,3.19,1.23,6.34,2.65,9.64,3.62a69.18,69.18,0,0,0,18.39,3c2.67,0,5.29.42,8,.51s5.09,0,7.63.13c2.87,0,6.14.72,8.67-1a3.68,3.68,0,0,0,1.34-2,3.22,3.22,0,0,0-.21-1.44,34.55,34.55,0,0,0-2-4.21,24.2,24.2,0,0,1-1.87-7.89c-.25-3.85,1-7.57,2.2-11.18a36.84,36.84,0,0,1,3.37-6.66,31,31,0,0,1,3.37-3.6,47.36,47.36,0,0,1,5.92-4.82,38,38,0,0,0,6.26-6c2.45-3.13,5.22-6,7.3-9.42a44,44,0,0,0,6.31-24.14,84.73,84.73,0,0,0-7.87-30.75c-2.69-5.58-6.56-10.54-10.57-15.23-2.27-2.22-4.5-4.49-6.89-6.59-2-2-4.54-3.42-6-5.89-5.4-9.39.3-12.76,9-8.62,4,2.4,6.31,6.82,8,11.05,1.28,2.62,2.69,5.17,4.18,7.68,5.48,9.08,10.43,18.7,13.2,29,1.69,6.5,1.69,13.25,1.54,19.91-.2,4-.35,7.94-.84,11.88-.07,2.48-1.89,8,1.4,8.93,3,.61,6.07-4.21,8-6.15,1.56-1.65,3.29-3.1,4.89-4.7a87.11,87.11,0,0,0,7.34-8c1.69-1.91,3.37-3.82,5-5.82,4.23-4.88,8.66-9.64,12.22-15a84.94,84.94,0,0,0,6.29-10.64,204.39,204.39,0,0,0,9.06-23.46c1.61-5.31,3.31-10.67,3.73-16.22.33-6.87,0-13.93-2.53-20.4A78.32,78.32,0,0,0,226.57,336,66.75,66.75,0,0,0,213,324.8a75.87,75.87,0,0,0-20.77-7.4c-1.83-.22-3.64-.62-5.47-.83-2.42-.26-4.85-.22-7.27-.4a32.37,32.37,0,0,1-10.06-1.6,8.81,8.81,0,0,1-4.56-4.51c-.92-2.19-1.44-3.27.17-5.35,3.13-4.2,6.3-6.24,11.5-7.06a18.61,18.61,0,0,1,5.72.13,22.51,22.51,0,0,1,4.79,1.11c2.61,1.06,4.95,2.71,7.6,3.72,2.36,1.07,4.81,1.91,7.2,2.91a92.3,92.3,0,0,1,10.06,5.71,85,85,0,0,1,10.31,7.82,53,53,0,0,1,6.35,7.43c2.5,3.3,4.29,7,6.67,10.38a25.8,25.8,0,0,0,3,4.15,26.63,26.63,0,0,1,1.64,2.3,29.78,29.78,0,0,0,3.43,3.84,5,5,0,0,0,7.11-.21c3.08-3.36,2.48-12.08,1.89-16.37s0-8.64.54-12.93a81.07,81.07,0,0,0,.7-15.49,68.21,68.21,0,0,0-2.44-15.28,42.3,42.3,0,0,0-2.7-7.64,52.86,52.86,0,0,0-3.54-6.55,39.43,39.43,0,0,0-3.57-5.31,10.44,10.44,0,0,0,.76-4.32,53.46,53.46,0,0,0-.4-11.23c-1-7.3.75-13.61,2.41-19.58,1.12-4.05,2.55-7.59,2.93-10,.17.12.33.27.51.39,2.56,1.56,7.62,5.63,10.36,2.76,1.27-1.68.92-4,1.14-6,.38-4.31.1-9,.94-13.29,1.21-6.73,2.28-13.5,4.07-20.1a58.25,58.25,0,0,1,3.37-9.92,40.58,40.58,0,0,1,5.37-8.37,32.56,32.56,0,0,1,5.82-5.79,10.16,10.16,0,0,1,4.7-2.56c1.84-.18,3.79-.72,5.57,0a2.25,2.25,0,0,1,1.59,1.43,9,9,0,0,1-2.95,9.22c-2.9,2.78-6.29,5-9.23,7.73a56.77,56.77,0,0,0-7.7,11.5,40.78,40.78,0,0,0-2.81,7.65,51.28,51.28,0,0,0-2,10.84c-.18,6-.15,12.32,2.36,17.93.84,1.7,1.81,3.33,2.73,5,1.33,2.33,2.53,4.74,3.9,7a23.24,23.24,0,0,0,3.67,4.13A64.21,64.21,0,0,1,289.5,256a36.71,36.71,0,0,1,2.37,5.28c.42,1.62.71,3.31,1.81,4.64a3.4,3.4,0,0,0,5.3.11c1.21-1.25,1.68-3,2.6-4.41a21.2,21.2,0,0,1,2.83-3,20.08,20.08,0,0,1,6.51-4.78c1.87-.92,3.8-1.69,5.72-2.49,2.17-.89,4-2.37,6.19-3.27,1.7-.55,3.41-1,5.12-1.51,2.5-.47,5-.76,7.49-1.43,5.2-1.65,9.58-5.17,13.14-9.21a54.07,54.07,0,0,0,7.72-12.43,31.44,31.44,0,0,0,2.14-4.69c2.2-6.26,2.66-12.93,2.53-19.52a26,26,0,0,0-1.59-7.79c-.94-3.19-2.22-6.28-3.43-9.43a112.19,112.19,0,0,0-4.51-10.38c-.93-1.9-2.24-3.58-3.28-5.42-1.71-2.83-3.53-5.57-5-8.52-1.16-2.1-2.68-4-3.77-6.11a10,10,0,0,1-.94-6.67c.73-1.7,2.14-3.43,4.14-3.47,2.8-.41,6.53,2.31,8.36,4.27a24,24,0,0,1,3.43,4.87c1.5,3.25,2.76,6.6,4.24,9.86a111.86,111.86,0,0,1,4.93,17.1,123,123,0,0,1,1.69,17.77c.16,3.31.17,6.63,0,9.93a125.11,125.11,0,0,1-3.1,17.19,47.25,47.25,0,0,1-1.43,5.5,25.39,25.39,0,0,0-1.75,5.44c-.22,1.46-.82,3.12-.19,4.54,1.09,1.78,3.48,1.87,5.28,1.29,2.53-.22,4.57-1.46,6.84-2.55,1.69-.87,3.54-1.39,5.21-2.31a41.19,41.19,0,0,0,5-3.11c5.35-3.63,11.14-6.9,16-11.27a37.35,37.35,0,0,0,4.21-4.32c.86-1.07,2.38-2.18,3.25-3.36q3.1-4,6-8.12c1-1.64,2-3.21,3.13-4.77a1.88,1.88,0,1,0-3.24-1.89c-.54.89-1.24,1.66-1.8,2.53s-1.05,1.87-1.67,2.74c-1.88,2.63-3.68,5.32-5.7,7.85-2.31,2.21-4.09,4.91-6.57,7a82.31,82.31,0,0,1-11,8c-3.07,1.93-5.94,4.18-9.16,5.87-1.37.7-2.84,1.16-4.24,1.79-1.65.78-3.31,1.54-5,2.26a23.21,23.21,0,0,1-3.49.68,19.46,19.46,0,0,1,.92-3.85c.58-1.49,1.38-2.9,1.83-4.44,1.11-3.4,1.8-6.94,2.62-10.42.82-3.23,1.1-6.56,1.67-9.84.69-5.51.28-11.09,0-16.62a104.48,104.48,0,0,0-1.36-13.21c-.66-3.32-1.52-6.6-2.35-9.88a94.76,94.76,0,0,0-5.1-13.83c-2-5.44-4.95-10.87-10-14a13.49,13.49,0,0,0-6.08-2.43,8.76,8.76,0,0,0-4.83,1,9.61,9.61,0,0,0-4.39,5.49A14.12,14.12,0,0,0,335,151a26,26,0,0,0,3.39,6.29c1.54,2.23,2.62,4.72,4.06,7,1.26,1.85,2.32,3.83,3.53,5.7a32.81,32.81,0,0,1,2.31,3.86c1.94,3.9,3.47,8,5.07,12a81.5,81.5,0,0,1,3.47,10.45,30.29,30.29,0,0,1,.36,7.18,43.74,43.74,0,0,1-3.28,17.37c-2.11,5.06-4.34,10.18-8.07,14.29a26.16,26.16,0,0,1-9.84,7.06c-2.42.86-5,1-7.51,1.55a48.28,48.28,0,0,0-7.15,2.11c-1.72.85-3.33,1.9-5.05,2.75-2.76,1.24-5.57,2.38-8.22,3.86a19.12,19.12,0,0,0-4.51,3.39c-1.2,1.29-2.59,2.42-3.67,3.82-1.88,2.61-3.48,8.36-4.77,1.6-1.73-7.08-6.16-13.12-10.7-18.68-1.71-1.92-3.61-3.67-5.38-5.53a18.74,18.74,0,0,1-2.48-3.91c-1.75-3.42-4-6.75-5.48-10.24a30.91,30.91,0,0,1-1.47-7.3,47.88,47.88,0,0,1,.95-14.38,41.44,41.44,0,0,1,5.4-13.84,59.42,59.42,0,0,1,4.37-6.3,32.14,32.14,0,0,1,3.68-3.22c4-3.35,9-6.39,10.2-11.84.93-3.68.31-8.81-3.83-10.17a8.68,8.68,0,0,0-4.39-.62c-3.24.15-6.53.88-9,3.11a30.39,30.39,0,0,0-5.9,5.54A43.22,43.22,0,0,0,263.36,176a94.09,94.09,0,0,0-4.42,17.21c-.85,5.49-2,11-2.39,16.49-.12,3.46,0,6.92-.23,10.38a11.36,11.36,0,0,1-.39,3.55c-1.36,0-2.5-.93-3.6-1.63-.73-.49-1.5-.94-2.23-1.43a29.11,29.11,0,0,1-7.41-7.64c-1.31-1.64-2.62-3.27-3.89-4.94-2-3-3.14-6.37-4.62-9.59-.8-2-1.57-4.09-2.36-6.12A42.15,42.15,0,0,1,230,175.92c.36-3.42,1.24-6.49,1.91-10a45.06,45.06,0,0,1,1.33-5.06c1.56-4.17,4.46-7.66,7.27-11,1.22-1.39,2.7-2.51,4-3.78a32.32,32.32,0,0,1,3.69-3.23,78.28,78.28,0,0,1,13.46-6.4,50.18,50.18,0,0,1,9.56-2.42c2.6-.39,5.17-1,7.79-1.23a19.59,19.59,0,0,0,7.23-1.41,14.38,14.38,0,0,0,4.3-2.47,39.39,39.39,0,0,0,3.42-3.29c3.33-3.53,3-8.42.74-12.43a19.23,19.23,0,0,0-10.08-8.34c-3.63-1.21-7.54-.81-11.29-.48-4,.12-7.78,1.53-11.61,2.57a41.44,41.44,0,0,0-10.57,4.89,45.13,45.13,0,0,0-6.69,4.69c-6.34,6.48-13.34,12.52-17.94,20.45-3.27,5.8-4.93,12.37-7,18.71-1.36,4-2.56,8-3.52,12-1.57,5.45-1,11.41-3.27,16.67-2.17-.74-3.2-2.9-4.31-4.74-.61-1-1.16-2.1-1.69-3.17-1.48-3.38-3.07-7-4.82-10.29a41.86,41.86,0,0,1-3.53-11.27c-.63-3.95-1.63-7.91-1.46-11.94a38.63,38.63,0,0,1,1.5-10.3c1-3.49,1.46-7.11,2.72-10.52a47.72,47.72,0,0,1,5.23-11c1.58-2.65,3.19-5.34,5.59-7.33s4.7-4,7-6.2a64.44,64.44,0,0,1,6.94-5,29.47,29.47,0,0,1,2.93-1.71,83.29,83.29,0,0,1,8.94-3.31,102.45,102.45,0,0,1,16.47-3.91c4.43-.65,8.89-.2,13.33,0,4,.22,7.89,1.24,11.82,2,5,1.08,10,3.22,15.24,2.45a8.78,8.78,0,0,0,6.08-3.13c1.36-1.64,1-4,.39-5.88-2.3-5.49-7.71-9.46-12.71-12.4a47.56,47.56,0,0,0-15.12-5.22c-4.26-.58-8.57-.17-12.85-.1a59.29,59.29,0,0,0-21.16,4.42,54.27,54.27,0,0,0-5.42,2.51c-1,.62-2,1.28-3.09,1.89-4.09,2.19-7.59,5.31-11,8.43-2.76,2.8-6,5.14-8.49,8.19C209.57,89,207.56,90.9,205.8,93a66.67,66.67,0,0,1-6.32,7.31,24.82,24.82,0,0,1-3.76,3.63c-.59-1.66-.3-3.49-.3-5.22s.07-3.3.18-4.94a91.05,91.05,0,0,1,3.24-17.71C202,65,206.94,54.19,214.41,45.24a24.27,24.27,0,0,1,2.41-2.84c2.31-2,5.2-3,7.89-4.38a60.48,60.48,0,0,1,6.62-2.84,57,57,0,0,1,16.85-4.47c3.12-.2,6.24-.19,9.36-.1a53.82,53.82,0,0,1,10.22,1.1A44.77,44.77,0,0,1,277.91,35a33.45,33.45,0,0,1,8.31,5,76.42,76.42,0,0,1,7.16,7.46,17.75,17.75,0,0,0,7,5.77,9.73,9.73,0,0,0,7.1.29c2.91-1.06,3.82-3.6,2.91-6.43A30.61,30.61,0,0,0,303.28,34c-4.29-5.28-9.9-9.18-15.68-12.67a65.29,65.29,0,0,0-7.89-4.17A21.58,21.58,0,0,0,272.42,15a24.72,24.72,0,0,0-8-.18c-2.66.49-5.33.94-8,1.32a14.2,14.2,0,0,1-4.77.38c3.75-4.79,9.56-7.12,15.11-9.16,12.38-4.57,23.59-4.43,36.31-1.53A77.84,77.84,0,0,1,312.39,8c1.58.59,3.14,1.23,4.68,1.9s3.05,1.32,4.55,2A29.33,29.33,0,0,1,330.34,19q1.5,1.74,2.82,3.62c1.57,2.3,2.62,4.9,4,7.31,2.4,4.61,2.56,8.06,2,13.07a66.1,66.1,0,0,1-5.77,22.08c-2.08,4-4.73,7.67-7.1,11.5a82.58,82.58,0,0,0-8.42,17.26c-4,11.64-6.44,23.73-8.41,35.86-1.13,6.36-1.7,12.8-2.59,19.2-1.21,9.83-2.3,19.67-3.17,29.54-.4,8.54-1,17.08-1.79,25.6-.57,8.41-2.53,16.61-3.85,24.92-.72,5.81-1.78,11.61-1.69,17.48,0,1.61.08,3.21.19,4.82a3.68,3.68,0,0,0,.73,2.36,1.76,1.76,0,0,0,2.59.29,6.56,6.56,0,0,0,1.15-1.56,21.44,21.44,0,0,0,2.46-5,33.82,33.82,0,0,0,1.35-5.51c.83-3.28,1.81-6.54,2.72-9.8,1.6-5.21,2-10.67,2.85-16a45,45,0,0,0,.88-7.94c.36-3.79.92-7.6,1.41-11.38.12-1.58.35-3.15.56-4.72.35-2.79.41-5.22.71-8.1.71-4.33,1.15-8.71,1.78-13.05.8-5.72,1.54-11.45,2.63-17.12.78-4.51,1.21-9.07,2-13.57A188.32,188.32,0,0,1,324,121.65c.74-3.62,2-7.11,2.89-10.69,1.08-3.85,2.1-7.71,3.53-11.45s2.61-8,4-11.79a124.33,124.33,0,0,1,6.4-13.38c2.22-4.17,5.28-7.82,7.56-12,2.91-4.74,5.2-9.81,7.67-14.78,1.79-3.37,3.57-6.84,5.45-10.18a49.59,49.59,0,0,1,9.42-12.09,33.9,33.9,0,0,1,6.35-4.46,34.9,34.9,0,0,1,8.14-3.8c3.54-1.18,7.16-2.05,10.79-2.88a38.62,38.62,0,0,1,5.55-1.2c4.64-.86,9.37-1.57,14.08-.69,2.74.65,5.59,1.39,7.81,3.21-3.71,2.14-8.21,1.55-12.32,2.18-6.43.57-13,1.59-18.93,4.19a48.34,48.34,0,0,0-12.78,8,50.73,50.73,0,0,0-8.37,8.52c-2.39,3.79-5.4,9.33-4,13.88.71,2.56,3.38,3.66,5.85,3.23,3.4-.22,5.66-3,7.92-5.27,2-1.93,3.79-4.14,5.83-6.07A102.53,102.53,0,0,1,408,28.49,37.84,37.84,0,0,1,420,25.15,44,44,0,0,1,435.77,27c3.3,1.22,6.19,3.32,9.06,5.32a34.8,34.8,0,0,1,9.55,9.94,53.09,53.09,0,0,1,3.91,7.28,77.82,77.82,0,0,1,4.79,12.5,104,104,0,0,1,3.14,20.44c.41,5.12,2.17,10,2.61,15.13s-1.2,10-2.69,14.83a83.15,83.15,0,0,1-3.52-8.45,58,58,0,0,0-4.11-8c-1.22-2.12-2.49-4.22-3.81-6.28a37.81,37.81,0,0,0-4-5.91c-7.58-9.68-17.23-18.27-29.15-22-1.72-.55-3.47-1-5.21-1.51a18.74,18.74,0,0,0-7.23-1.09c-4.88.05-9.86.41-14.43,2.25-5.95,2-9.27,5.5-8.44,12a8,8,0,0,0,1.12,3.7,9,9,0,0,0,4.55,3.26,24,24,0,0,0,5.09.31c4.41.08,8.9.17,13.16,1.45,4,1.4,8.33,1.95,12.21,3.8a52.67,52.67,0,0,1,12.87,7.78,64.56,64.56,0,0,1,9.8,11.45c4.16,5.88,6.07,12.58,7.44,19.56.46,2.9,1.13,5.78,1.38,8.71a64.53,64.53,0,0,1-.07,6.67,40.14,40.14,0,0,1-2,10.46,80.35,80.35,0,0,1-9.13,18.75,48.81,48.81,0,0,1-5.92,7.22c-1,.88-1.9,2.15-3.28,2.38a7.72,7.72,0,0,1-1.12-3,58.86,58.86,0,0,0-1.69-7.64A102.35,102.35,0,0,0,424.24,152a138.53,138.53,0,0,0-11.92-19.39C406.26,124,399,116,390.25,110.1c-3.07-2.14-6.39-3.89-9.63-5.77a37.89,37.89,0,0,0-10.82-4.7,23.58,23.58,0,0,0-7.26-.34,50.37,50.37,0,0,0-7.59,1.57,25.2,25.2,0,0,0-6.86,2.45c-4.24,2.47-7.56,7.76-5.14,12.57,1.73,4.25,5.48,6.39,9.61,7.86a112.41,112.41,0,0,0,14.91,4.76,100.27,100.27,0,0,1,13.65,6.79A81.28,81.28,0,0,1,393.18,144a42.64,42.64,0,0,1,8.38,10.62,100.62,100.62,0,0,1,8.73,21.49,115.51,115.51,0,0,1,4.55,20.2,90.39,90.39,0,0,1,.78,15.25,109,109,0,0,1-6,38.28c-3.18,9.56-8.35,18.87-13.07,27.84-.56,1.41-3.87,5.71-5,8.81a62.85,62.85,0,0,0-11.2-6.91,76.8,76.8,0,0,0-10.77-3.68c-7.76-2.54-16-3.06-24.07-3.49a88.73,88.73,0,0,0-17.55.35c-4,.7-7.61,1.39-11.62,2.42a62.31,62.31,0,0,0-12.31,5.37c-1.75,1.11-3.45,2.29-5.27,3.29-4,2.47-8.47,4.83-11,9-3.76,6.17,6.43,4.22,9.64,3.57a83.42,83.42,0,0,1,8.9-1.63c4.81-.39,9.54.51,14.28,1.16a133.36,133.36,0,0,1,16.85,3.19,76.87,76.87,0,0,1,11.69,3.65,27.22,27.22,0,0,1,5.85,2.76c2.72,1.74,8.71,5.35,9.91,8.31-1.22,1.61-3.37,1.9-5.26,2.05-3.21.42-6.15-.95-9.07-2.07-3.6-1.26-7.22-2.6-10.92-3.76a103.8,103.8,0,0,0-22.42-6.17c-5.22-.89-10.51-1.68-15.81-1.1-5.46.46-11.05.78-16.17,2.93a37.31,37.31,0,0,0-6.95,3.76,35.68,35.68,0,0,0-8.88,7.64,17.52,17.52,0,0,0-2.26,3.21c-1.3,2.3-2.71,4.54-3.78,6.95a54.72,54.72,0,0,0-5.1,19,71.42,71.42,0,0,0-.29,9.81c.06,1.9.43,4.63,2.83,4.72a6.26,6.26,0,0,0,2.77-.79,37.1,37.1,0,0,0,5.84-3.1c3.12-2.15,5.93-4.77,9.33-6.52A83.18,83.18,0,0,1,291,345.15c1.81-.72,3.58-1.57,5.42-2.22,4.51-1.46,9.17-2.43,13.78-3.54a66.71,66.71,0,0,1,9.71-1.82c9.13-1.15,18.21-2,27.43-2.27a136.92,136.92,0,0,1,18.29,1.06l7.59,1c4,.5,13.71,1.26,14.72,6a4.5,4.5,0,0,1-1.68.59l-4.17.81a34.28,34.28,0,0,1-4.15.6c-2.57.17-5.36-.35-8-.19-2.76.15-5.49.48-8.24.67-4.72.17-9.44.3-14.16.49-7,.2-14.07-.11-21.11.14A151.86,151.86,0,0,0,300.43,350a97.19,97.19,0,0,0-15.77,5.06c-3.84,1.53-7.36,3.76-11,5.71-5.41,3-11.61,8.6-13.81,14.43-2.9,7.55-.89,15.3,2.14,22.46,1.71,4.13,2.65,8.56,4.93,12.43,1.63,2.67,2.5,5.73,4.25,8.32.6,1,1.33,2.1,2.56,2.26,1,.13,1.71-.65,2.33-1.32a23,23,0,0,0,3.68-5.08c3.28-5.22,5.79-10.84,8.79-16.22a37.1,37.1,0,0,1,6.79-6.81,76,76,0,0,1,7.18-5.6,68.59,68.59,0,0,1,7-4,118,118,0,0,1,16.9-7.59c6.67-2.17,13.42-4.07,20.12-6.12,6.32-1.71,12.61-3.61,19.05-4.79a78.55,78.55,0,0,1,10.14-1.81c3.31-.41,6.68-.88,10-.28a14.38,14.38,0,0,1,5.44,2.21,2,2,0,0,1,1,1.67,16,16,0,0,1-3.41,1.31,33.31,33.31,0,0,1-6.94,1.89,39.07,39.07,0,0,1-5.31.49c-2.05.21-4.1.47-6.13.82s-4,1-6.07,1.47a60.8,60.8,0,0,0-9.1,2.45c-6.94,1.93-13.4,4.74-20.06,7.44-2.88,1.34-5.77,2.71-8.6,4.16a61.75,61.75,0,0,0-5.19,3.62q-3.6,2.43-7,5.15a39,39,0,0,0-3.05,2.7c-2,2-3.44,4.46-5.18,6.67a31.31,31.31,0,0,0-4.32,7.17c-1.15,2.62-2.14,5.32-3,8a51.21,51.21,0,0,0-1.4,8.07c-.39,5.47-.33,11.1,1.46,16.34a54.85,54.85,0,0,0,5.57,11.19,72.33,72.33,0,0,0,19.84,22.26c3.38,2.39,6.65,4.95,10.26,7,3.92,2.4,8.23,4.08,12.16,6.49,1.77,1,3.6,2,5.3,3.09a56.14,56.14,0,0,0,7.22,4.5c2.14,1.08,4.3,2.75,6.8,2.64,1.68-.43,2-3.2,2.35-4.73.53-2.66-.35-5.33-.46-8-.41-5.87-.72-11.87-.82-17.81.06-6.31-.44-12.71.71-19A70.13,70.13,0,0,1,371,439.81a78.24,78.24,0,0,1,3.47-8.91,122.42,122.42,0,0,1,6.25-10.82c1.27-1.79,2.51-3.62,3.71-5.46,4.31-6,9.56-12.05,15.86-16.21,3.37-2.62,6.77-5.31,10.85-6.74a17.67,17.67,0,0,1,4.7-1c1.49-.13,3.16-.16,4.24,1,2,3.08-1.36,8.13-3,10.9a62.27,62.27,0,0,1-8.14,9c-4.55,4.67-7.29,10.72-11.16,15.92a69.48,69.48,0,0,0-6.29,9.77,68.31,68.31,0,0,0-4.15,7.79,83.54,83.54,0,0,0-3.91,7.73,72.86,72.86,0,0,0-2.5,7.75,56,56,0,0,0-2,12.06c-.23,4.19-.67,8.54.59,12.62a41.71,41.71,0,0,0,5.51,11,57.42,57.42,0,0,0,8.32,9,26.8,26.8,0,0,0,7.49,3.23c3.74,1.54,7.69,2.5,11.38,4.17,1.71.91,3.45,1.74,5.09,2.76,1.35.69,2.48,1.89,4,2.25,3.28.82,3.12-3.54,3.21-5.72a53.26,53.26,0,0,0-.29-6.92,60.48,60.48,0,0,1-.65-11c0-5,.07-10,.15-15a85.28,85.28,0,0,1,3.83-26.87c.94-2.49,1.94-5,3.06-7.39a26.09,26.09,0,0,1,3.58-5.09c2.88-3.07,6.22-6.38,10.67-6.64,2.23-.15,3.52.82,3.92,3a14.5,14.5,0,0,1-1,7.69c-2.27,6.36-6.35,11.83-9.52,17.74-3.37,6.42-6.24,13.26-7.23,20.49-.36,4.7-.4,9.43-.31,14.14a50.39,50.39,0,0,0,4.63,17.26,41.61,41.61,0,0,0,4.47,8,81.29,81.29,0,0,0,13,13.56,49.56,49.56,0,0,0,3.94,3c1.37.93,2.72,2.19,4.14,3.38,1.22,1,2.58,1.93,3.82,3,1.24,1.19,2.15,2.41,3.33,3.76a21.78,21.78,0,0,1,4,5.27c1.12,2.16,1.63,5.42,4.45,5.92,1.94.45,2.85-1.57,3.59-3,.45-.81.92-1.6,1.33-2.44,2.15-4.2,4.34-8.39,6.41-12.63,2.59-6.09,5.87-11.85,8.54-17.9A148.22,148.22,0,0,0,502,506.43c1.49-5.25,1.94-10.72,2.75-16.1a78.14,78.14,0,0,0,.88-8.09,36.93,36.93,0,0,0-.52-11.82c-.58-2.5-1.33-4.95-2.09-7.4a36.15,36.15,0,0,0-2.64-6.89c-1.47-3-2.9-5.94-4.5-8.94-1.9-3.15-3.71-6.37-5.9-9.33-2-2.87-4.59-5.53-5.3-9.05a12.55,12.55,0,0,1,1.63-9.66c1.26-2,2.26-2.81,4.65-3,3.71-.29,6.63,2.45,8.73,5.2,4.5,5.1,5.05,12.12,6.56,18.46.84,4.22,2.21,8.3,3.11,12.5s.91,8.53,1.32,12.84a7.6,7.6,0,0,0,.48,2.16c.44,1,1.8,2,2.86,1.2,2.21-1.91,3-4.84,4-7.48,1.95-4.94,4-9.84,5.71-14.87a68.09,68.09,0,0,0,1.79-8.25,69.94,69.94,0,0,0,.47-16c-.23-3.39-.44-7-1-10.51-1.52-9.78-8.76-21-16.22-27.41a36.92,36.92,0,0,0-7.2-4.29,34.52,34.52,0,0,0-11-3.84c-4-.59-8.11-.12-12.16-.23a38.75,38.75,0,0,1-3.87-.55,21.46,21.46,0,0,1-6.21-1.66c-2.77-1.44-4.89-3.29-4.45-6.7,1.12-4.4,7.62-5.39,11.48-5.81,9.43-.87,13.83,2.81,21.74,6.74,3.57,1.78,7.25,3.33,10.71,5.34a47.81,47.81,0,0,1,12.59,10.29c3,3.51,5.48,7.4,8.45,10.91a4.44,4.44,0,0,0,4.81,1.41c2-.9,3-3.51,3.7-5.48a35.47,35.47,0,0,0,.83-12.57c-.4-4-2.08-7.61-3.09-11.42A55.13,55.13,0,0,0,530.43,355a61.32,61.32,0,0,0-9.33-12.66,34,34,0,0,0-13.85-8.2,33.26,33.26,0,0,0-7.55-1.3,38.84,38.84,0,0,0-11.08.44,46.37,46.37,0,0,0-11.25,3.69c-3.75,1.7-7.52,3.48-11.67,3.81-2.13.28-4.35.71-6.41-.12-.75-3.87,5.88-7.94,8.65-10a41.08,41.08,0,0,1,13.15-5.6,66.08,66.08,0,0,1,10.43-.71,43.17,43.17,0,0,1,9.36.65c4.43.59,8.89,1.35,12.88,3.46,3.63,2,7,4.47,10.81,6.06a17.69,17.69,0,0,0,4.49,1.65c2,.41,3.16-2,3.41-3.65a18.29,18.29,0,0,0-1.67-11,65.73,65.73,0,0,0-4.6-7.85,47.18,47.18,0,0,0-9.54-10.45,37.84,37.84,0,0,0-10.29-5.79,28.27,28.27,0,0,0-6.8-2,29,29,0,0,0-8.16-.47,31,31,0,0,0-7.81,2,60.19,60.19,0,0,0-13.17,8.51c-1.05.91-2.07,1.87-3,2.86-2.73,2.86-5.73,5.45-8.53,8.24-2.72,2.62-5.36,5.31-8.22,7.77a6.73,6.73,0,0,1-2.33,1.61c-.86,0-1.17-.27-1.25-1.11a6.2,6.2,0,0,1,.47-2.24c.59-1.54,1.3-3,2-4.52a76.08,76.08,0,0,1,4.55-7.48,44,44,0,0,1,11.69-11.3,47,47,0,0,1,9.59-5.23c5.66-1.59,11.41-2.8,17.34-2.51,3.85.44,7.62,1.36,11.5,1.57,2.29.32,4.58.63,6.86,1s5.36,1.07,6.21-1.7c.72-2.06-.26-4.22-1.12-6.09-2.59-4.48-9.4-8.22-14-10.57a89.27,89.27,0,0,0-13.8-5.88c-4.38-1.6-9.2-3.14-13.71-4.57A86,86,0,0,0,459.56,263c.27-.95.42-1.94.63-2.91A91,91,0,0,0,461.51,250c.63-6.47,1.36-12.93,2.53-19.32A104.5,104.5,0,0,1,470,209.2c2.14-6.18,4.31-12.37,7-18.33,3.35-7.19,6.51-14.53,11-21.08,2.37-3.66,4.59-7.42,7.09-11,2.38-3.38,4.83-6.4,7.37-9.58a213.67,213.67,0,0,1,20.95-24.12c5.8-5.5,11.54-11.13,17.91-16a104.14,104.14,0,0,1,17.93-10.83c9.36-4.46,19.31-8.36,29.8-8.59,10.91-.69,18,1.08,27.71,6.12a27.39,27.39,0,0,1,7.29,7c1.13,1.6,2.3,3.17,3.32,4.83,1.09,2.07,2.08,4.19,3,6.33,2.35,5.8,3.23,12,4.83,18.06.56,3,.84,6.05,1.12,9.08.16,2.53,0,5.08.16,7.61.26,7,.93,14,1.23,21,.72,9.37,1.59,18.73,2.46,28.09.24,2.08.4,4.18.57,6.27.3,3.38.86,6.73,1.21,10.1.6,4.05.83,8.14,1.21,12.21a167.61,167.61,0,0,1,1.11,23q.06,6.57.13,13.14c-.09,5.27-.62,10.61-1.21,15.79-.54,4.89-.75,9.81-1.44,14.69s-1.61,9.61-2.57,14.38c-1.25,4.25-2.16,8.71-3.27,13-1.09,3.79-2.43,7.51-3.73,11.23-1.86,5.66-3.48,11.41-5.56,17-.8,2.89-3.33,7.45.45,9,2.12.61,3.4-1.79,4.48-3.21a79.29,79.29,0,0,0,5.4-8.74c2.32-4.46,4.8-8.87,6.31-13.68a122.91,122.91,0,0,0,4.69-15,155.38,155.38,0,0,0,4.08-17.57c1.8-7.23,2.29-14.66,3-22a271.45,271.45,0,0,0,1-34.1c-.21-4.18-.65-8.34-.83-12.52s-.32-8.16-.81-12.22c-.83-6.75-1.37-13.53-2.41-20.25-.55-5-.93-9.93-1.54-14.88-.56-3.61-1.09-7.22-1.4-10.86-.33-3.46-.94-6.89-1.24-10.36a53.94,53.94,0,0,1,.25-10.4c.15-1.75.11-3.52.33-5.26s.62-3.27,1-4.9a27.81,27.81,0,0,1,2-5.7,15.42,15.42,0,0,1,2.11-3.68c1.41-1.74,2.81-2.76,4.22-4.35a32.27,32.27,0,0,1,7.26-6.39,27.17,27.17,0,0,1,8.16-2.68,24.61,24.61,0,0,1,5.2-.6c6.62.14,13.26.16,19.87.67a60.52,60.52,0,0,1,14.41,3.42,84.19,84.19,0,0,1,15,6.56c3.83,2.35,7.44,5,11.19,7.54,4.14,3.73,7.35,8,11,12.19a105.23,105.23,0,0,1,12.54,18.94c3.16,6.4,5.07,13.15,6.95,20,2.17,8.09,2.19,16.58,1.6,24.88-.39,4.57-.7,9.14-1.49,13.6-.77,4.7-1.61,9.4-2.75,14a28.33,28.33,0,0,1-2.74,7.12c-2.18-.63-2.42-4.22-3.12-6.07-.45-1.46-1-2.89-1.46-4.34-1.29-4.4-3.4-8.47-4.91-12.77a91.85,91.85,0,0,0-3.74-10.64c-1.6-3-3.14-6-4.86-9a48,48,0,0,0-4.69-6.13,82.45,82.45,0,0,0-8.27-8.13c-8.9-6.76-19-11.75-30.35-12.3a24.19,24.19,0,0,0-13,2.52,9.81,9.81,0,0,0-4.91,4.82c-1.16,4.09,2.22,8.1,4.93,10.81a30.18,30.18,0,0,0,6.31,4.5c6.68,4.44,13.93,7.86,21,11.66,4.53,2.76,9.07,5.54,13.32,8.73a111.74,111.74,0,0,1,8.77,7.72,119.83,119.83,0,0,1,12.35,15.45c1.28,2.32,1.78,4.94,2.64,7.42a19.51,19.51,0,0,1-.27,10.23,50.42,50.42,0,0,1-3.6,8.79,63.58,63.58,0,0,1-5.22,9.1c-3.29,5.16-7.57,9.59-11.21,14.49a180.56,180.56,0,0,1-21.12,22.72c-1.85,1.73-3.86,3.27-5.82,4.87s-4.2,3.54-6.83,4.26a3,3,0,0,1-.19-.94,21.06,21.06,0,0,1,.81-4.58,71.11,71.11,0,0,0,1.56-8.31c.19-1.38.39-2.76.54-4.15.31-2.75.19-5.53.42-8.28a60.93,60.93,0,0,0-.5-18.63,38.71,38.71,0,0,0-4.13-9.79c-2.56-4.6-5.21-9.22-9.11-12.74a33.43,33.43,0,0,0-4.94-5c-4.34-3.21-10.43-5.49-14.4-.46-3.76,5.07-2.13,12,.45,17.2a64.88,64.88,0,0,0,3.74,6.46c.82,1.47,1.5,3,2.28,4.52,2,3.46,3.26,7.28,5,10.85,1.52,3,3.2,6,4,9.3a55.75,55.75,0,0,1,1.84,10.47c0,2.19-.25,4.37-.49,6.55a32.14,32.14,0,0,1-3.37,9.73A37.06,37.06,0,0,1,676,338.26a64.16,64.16,0,0,1-10,7.35c-4,2.55-7.86,5.2-12.27,6.9-1.74.7-3.51,1.31-5.21,2.07a47.45,47.45,0,0,0-9.33,5.82c-2.11,1.55-4.23,3.09-6.26,4.74-2.35,2-4.5,4.13-6.81,6.12-.87.66-2.23,2.28-3.23,1.66-1-1.39-1.47-3.08-2.46-4.49a52.52,52.52,0,0,0-6.66-8.07c-3.63-3.67-7.59-7.06-10.77-11.16-2.66-3.31-5.45-6.6-7.06-10.58-2.93-7.23-3.5-12.43-2.54-20.13a25.28,25.28,0,0,1,4.55-11c1.13-1.39,2.4-2.67,3.65-3.94,2.34-2.22,4.9-4.19,7.35-6.29,1.67-1.56,3.22-3.24,5-4.65,3-2.78,6.33-5.44,8.48-9S627,276.1,627,271.78c-.16-7.3-6.93-10.21-13.35-8.34s-11.07,7.07-14.64,12.49c-2,3-4.14,6-6.23,9.05a79.35,79.35,0,0,0-5.65,9.95,33.38,33.38,0,0,0-2.93,7.49c-.92,3.17-1.14,6.47-1.79,9.69q-1.57,6-2.67,12c-2.4-.78-4.07-2.81-5.74-4.59a41.73,41.73,0,0,1-8-10.35c-1.21-2-2.69-3.75-3.89-5.73-1.59-2.91-3-6.21-4.77-9a20.57,20.57,0,0,1-1.84-4.6,41.33,41.33,0,0,1-2.13-10.36,32,32,0,0,1,2-15.47c1.7-4.39,4.76-8,8-11.33,1.66-1.77,3.12-3.72,4.87-5.41a88.94,88.94,0,0,1,19-13.48c3.31-1.75,6.53-3.7,10-5.12,2.9-1.16,6-1.58,9-2.46,3.51-1.23,7.21-2.27,10.09-4.74a16.51,16.51,0,0,0,4.74-9,11.93,11.93,0,0,0-1.61-8,15.87,15.87,0,0,0-8.61-5c-4.89-1-9.87.75-14.15,3-1.9,1.07-3.68,2.34-5.54,3.49s-3.7,2.43-5.51,3.69-3.64,2.61-5.52,3.82c-2,1.39-3.81,2.94-5.69,4.45a76.67,76.67,0,0,0-6.79,5.95,61.15,61.15,0,0,0-6.82,8.41,98.06,98.06,0,0,0-10.12,16.25,153.44,153.44,0,0,0-8,16.91,41.87,41.87,0,0,1-1.65,4.19,6.53,6.53,0,0,1-1.24,2.2c-3,.05-5.28-7.78-6.26-10.16a41.62,41.62,0,0,0-1.6-3.91c-.65-1.55-.91-3.22-1.44-4.81A113.73,113.73,0,0,1,526.78,241a61.35,61.35,0,0,1-1.92-13.33,56.89,56.89,0,0,1,0-10.44,47.46,47.46,0,0,1,2.78-10.69c4.65-11.86,12.13-23.24,23.57-29.45,3.35-2,7.15-2.87,10.83-4,4.91-1.42,10.34-1.67,15.15.24a74.39,74.39,0,0,1,7,3.6,47.52,47.52,0,0,0,6.89,2.74,22.63,22.63,0,0,0,8,.3,5.86,5.86,0,0,0,5.29-4.3c1.56-6.18-3.24-10.19-7.74-13.44-5.22-3.51-11.41-4.9-17.54-5.85-7.79-1.55-16-2.53-23.72-.16a80.16,80.16,0,0,0-8.61,3.2,121.55,121.55,0,0,0-11.45,6.48,72.69,72.69,0,0,0-8.12,4.91q-3.15,2.4-6.42,4.62c-1.11.6-3.2,2.57-3.34.12a22.17,22.17,0,0,1,1.71-9.62c1.55-3.8,4.26-6.95,6.86-10.07s4.64-6.68,7.14-9.89c4-4.92,8.12-9.71,12.54-14.25A81.83,81.83,0,0,1,557,121.07a47.31,47.31,0,0,1,6.35-4.45,82.57,82.57,0,0,1,9-5,58.3,58.3,0,0,1,23.21-5,40.43,40.43,0,0,1,11.55,1.76,29.54,29.54,0,0,1,12.28,5.88,52.13,52.13,0,0,1,5.39,4.9c.52.5.94,1.09,1.45,1.59a2,2,0,0,0,2.91-.26c1.1-1.74-1-3.25-2.06-4.41a51.46,51.46,0,0,0-7.22-6.2c-4.53-3.41-10.08-4.85-15.52-6.1a42.64,42.64,0,0,0-12.55-.87A64,64,0,0,0,571.1,108a99.92,99.92,0,0,0-13.22,7.64,93.56,93.56,0,0,0-9.48,7.85c-3,2.88-5.77,6-8.66,9a139.59,139.59,0,0,0-15,19.06c-1.58,2.5-3.59,4.68-5.15,7.19a27.73,27.73,0,0,0-4.16,9.27c-.67,3-2,8.84.76,11.09,2,1.41,4,.51,5.81-.62s3.73-2.32,5.5-3.62a59.1,59.1,0,0,1,9.24-5.66,128.56,128.56,0,0,1,12.79-6.84,53,53,0,0,1,12-3.56c5.95-.67,11.92.34,17.75,1.45a67.48,67.48,0,0,1,6.87,1.41,26.05,26.05,0,0,1,11.07,5.79c1.79,1.47,3.74,3.32,3.72,5.8a3,3,0,0,1-.83,2.5v0a3.35,3.35,0,0,1-1.52.47,28.74,28.74,0,0,1-5.08.06,24.42,24.42,0,0,1-5.62-1.87c-2.44-1-4.64-2.46-7-3.62-5.83-3-12.82-3.29-19.09-1.53a61.2,61.2,0,0,0-11.13,3.82,48.93,48.93,0,0,0-12.33,9.15,61.7,61.7,0,0,0-9.45,12.89c-3.17,5.89-5.91,12.13-7.13,18.74a40.13,40.13,0,0,0-.47,11.42,64.31,64.31,0,0,0,1.48,11.48,78.66,78.66,0,0,0,3.49,11.51c.89,2.35,1.91,4.77,2.59,7.19a27.92,27.92,0,0,0,2.13,5.65c.6,1.47,1.13,3,1.68,4.32,1.29,3,2.4,6.59,5.36,8.41a3.12,3.12,0,0,0,4-.44c2.49-3.32,3.33-7.57,5.36-11.17,3.24-5.91,6.48-11.83,9.83-17.69,2.1-3.47,4.47-6.77,6.88-10a56.11,56.11,0,0,1,4.55-5.87,48.63,48.63,0,0,1,6.89-6.49,87.74,87.74,0,0,1,9.92-7.46c4.11-3,8.4-5.8,12.71-8.51,3.39-1.85,7.15-3.48,11-3.08a13.1,13.1,0,0,1,6.89,3.22c1.48,1.65,1.63,4.62,1.11,6.68-1.63,5.44-4.61,7.29-9.76,8.89-4.21,1.67-8.86,2-13,4-2.42,1-4.71,2.38-7,3.65s-4.91,2.61-7.27,4.07a84.6,84.6,0,0,0-15.64,12.23c-1.76,1.92-3.36,4-5.18,5.85a31.27,31.27,0,0,0-8.4,16c-1.44,8.52,0,17.35,3.17,25.34.79,2.11,2.2,3.92,3.29,5.88a55,55,0,0,0,5.51,9.29c2,2.76,3.45,5.84,5.59,8.48,1.31,1.71,2.85,3.22,4.32,4.8,1.63,1.92,5.63,6.09,8.28,4.92,1.82-1.09,1.77-4.31,2.38-6.13.54-2,1-4,1.52-5.9,1.13-4,1.15-8.19,2.5-12.12a33.16,33.16,0,0,1,2.61-5.95,66.52,66.52,0,0,1,4.83-8.18c1-1.63,2.19-3.19,3.3-4.78,3.31-4.67,6.07-9.91,10.64-13.5a19,19,0,0,1,6.24-3.27c3.5-.86,7.83.16,8.22,4.35.42,3.41-1.78,6.84-3.31,9.76-3.12,5.54-8.77,8.85-13,13.47-4.27,3.88-8.9,7.54-12.2,12.33a29.12,29.12,0,0,0-4.28,12.89,43.66,43.66,0,0,0,.28,11.19,45.33,45.33,0,0,0,3.84,11c2.61,4.74,6.24,8.84,9.78,12.91,3.34,3.61,7.22,6.71,10.32,10.54a46.1,46.1,0,0,1,4,5.44c1.07,1.72,1.42,4.16,3.46,5,2.85,1.58,6.66-3.08,8.77-4.71a44.8,44.8,0,0,1,6.59-5.05c4.78-2.85,9.15-6.44,14.37-8.49a74.64,74.64,0,0,0,15-7.88,77.52,77.52,0,0,0,9.93-6.71,44.25,44.25,0,0,0,7.68-8.82,55,55,0,0,0,5-10.78,32.33,32.33,0,0,0,1.33-7.94c.64-5.24-.7-10.42-2-15.46-1-3.82-3.12-7.19-4.79-10.74-.89-1.84-1.62-3.75-2.44-5.61s-2-3.73-2.89-5.63c-2.22-4.72-5.89-8.72-7.32-13.82a10.73,10.73,0,0,1-.7-5,7.9,7.9,0,0,1,1.51-4.3c2.8-3.51,7.48-.87,10.34,1.2,2.09,1.57,3.51,3.82,5.41,5.6,3.39,3.41,5.65,7.7,8,11.84a38.58,38.58,0,0,1,3.35,7.89,53,53,0,0,1,.85,16.19c-.28,2.7-.28,5.41-.31,8.12a94.14,94.14,0,0,1-2.32,16.19c-.35,1.69-.68,3.54.06,5.18,1.52,3.94,8.17-1.17,10.11-2.69a113.93,113.93,0,0,0,11.44-9.71,118.2,118.2,0,0,0,10.53-11.19c3.45-3.7,6.42-7.88,9.66-11.73a105.49,105.49,0,0,0,12.16-16.8c1.93-3.65,4-7.27,5.35-11.21a23.34,23.34,0,0,0,1-11.42c-.42-2.36-1.31-4.6-2-6.9-1.28-3.81-4-6.78-6.3-9.88a88.36,88.36,0,0,0-17.33-17.65c-2.16-1.69-4.48-3.16-6.78-4.65a105.13,105.13,0,0,0-11.17-6.58,165,165,0,0,1-15.64-8.73c-3.1-1.87-6.32-3.72-8.51-6.69a9.07,9.07,0,0,1-2.05-4c-.23-2.31,4.49-4.13,6.28-4.74a25.44,25.44,0,0,1,8.9-.65,43.47,43.47,0,0,1,16.39,4.57,37.78,37.78,0,0,1,5,2.78,39.19,39.19,0,0,1,8.22,6.07,65,65,0,0,1,8.64,9.44,62.93,62.93,0,0,1,3.83,6.55,50.66,50.66,0,0,1,3.52,6.93c1.13,2.6,1.88,5.35,2.91,8,1.54,3.92,3.44,7.68,4.82,11.65.46,1.25,1,2.48,1.43,3.72,1.1,2.74,1.59,6.57,4.81,7.61a2.17,2.17,0,0,0,2.59-.66,23.45,23.45,0,0,0,2.09-4.12,50.68,50.68,0,0,0,2.12-6.95c1.25-5.24,2.37-10.53,3.27-15.85C774.16,212.55,775.17,203.73,774.34,195Zm-528.2,88.38a74.37,74.37,0,0,1,4.12,17.95,77.82,77.82,0,0,1,.44,8.63c-.09,2.95-.43,5.89-.73,8.82a60.21,60.21,0,0,0-.5,7.93c.13,1.87.28,3.75.57,5.6.45,3,1.13,12.62-2.41,13.72a2.7,2.7,0,0,1-1.36,0,5.68,5.68,0,0,1-2.44-2,22.42,22.42,0,0,1-2.73-3.56c-.58-.84-1.27-1.6-1.92-2.39-1.34-1.74-2.5-3.85-3.82-5.64A73.43,73.43,0,0,0,228,321.65a53.88,53.88,0,0,0-12.72-11.12,100.63,100.63,0,0,0-11.85-6.86c-2.45-1.12-5-1.87-7.49-3-2.75-1-5.15-2.75-7.86-3.85a20.27,20.27,0,0,0-4.2-1.09c-2.77-.32-5.59-.79-8.36-.24a17.73,17.73,0,0,0-11.11,5.58c-2,2-4.12,4.53-3.6,7.54a12.61,12.61,0,0,0,5.26,8.5,19,19,0,0,0,6.25,2.16c4.38.85,8.89.7,13.33,1q3.9.53,7.78,1.19a81.48,81.48,0,0,1,17.25,6.4,62.61,62.61,0,0,1,6.16,4.28,63.82,63.82,0,0,1,6.12,5.51,74.17,74.17,0,0,1,11.79,18.74,43.38,43.38,0,0,1,1.72,13.83,37.35,37.35,0,0,1-1.12,9.82A223.49,223.49,0,0,1,227,405.88a67.07,67.07,0,0,1-7.2,14.24,145,145,0,0,1-12.66,17.23c-3.27,4-6.53,8.19-10,12-3.2,3.39-6.65,6.53-9.66,10.09-.88.8-3.7,4.1-3.65,1.08.06-2.6.61-5.16.85-7.75a186.71,186.71,0,0,0,.75-19.21,56.75,56.75,0,0,0-3.33-17.6,98.43,98.43,0,0,0-7.68-17.25c-2.09-3.65-4.38-7.18-6.29-10.93-1.48-2.55-2.35-5.4-3.86-7.93a18.83,18.83,0,0,0-7.17-7.4c-3.47-1.55-7.67-2.61-11.3-1-5.94,2.85-4.44,10.3-1.53,14.89a22.19,22.19,0,0,0,5.37,5.35c1.63,1.61,3.43,3,5,4.71,1.31,1.32,2.5,2.28,3.79,3.82s2.51,3.07,3.71,4.66a46.73,46.73,0,0,1,5.62,8.95A74.5,74.5,0,0,1,173,428.71a60.15,60.15,0,0,1,2.1,14.55,46.12,46.12,0,0,1-3.23,16.35,37,37,0,0,1-6.12,10c-1.75,2.18-3.37,4.46-5.27,6.51a61.92,61.92,0,0,1-6.43,5.67,39.76,39.76,0,0,0-7.35,7.93,37,37,0,0,0-4,11.21,24.06,24.06,0,0,0-.79,7.83,27,27,0,0,0,1.85,7.81c.68,1.65,1.79,3.12,2.2,4.88-1.22,1.92-4.52,1.25-6.5,1.34-3.64-.14-7.29,0-10.92-.31-3.19-.36-6.39-.55-9.6-.72a80.24,80.24,0,0,1-14-2.71,50.61,50.61,0,0,1-6.66-2.46,29.36,29.36,0,0,1-5.86-2.77A53.1,53.1,0,0,1,80.12,505c-5.88-5.69-10.69-12.47-12.32-20.66a51.67,51.67,0,0,1-1.51-10.86,45,45,0,0,1,.68-7.23,140.46,140.46,0,0,1,4.32-17.94,118.48,118.48,0,0,1,6.92-17.53c2.68-5.44,5.92-10.66,7.62-16.53.86-3.26,2.17-6.5,2.14-9.91,0-4.81-4.87-8-9.37-7.48-4.86.41-8.75,2.53-12.51,5.49-5.94,4.06-9.56,10.48-12.59,16.84C50.68,425.51,49,432.27,47.38,439c-1.77,7-1.89,14.22-1.71,21.39a84.71,84.71,0,0,0,3,20c1,3,2.27,5.87,3.52,8.76a5.07,5.07,0,0,1-3-.51,24.61,24.61,0,0,1-2.75-1.21,63.56,63.56,0,0,1-9.76-6.87,50.23,50.23,0,0,1-7.05-6.21,44,44,0,0,1-8.39-19.8,38.6,38.6,0,0,1,.27-15.25c2-7.26,4.35-14.43,6.81-21.54,2.09-4.81,4.11-9.73,7.09-14.08,2.16-2.95,4.15-6,6.28-9,1.57-2.08,3.32-4,5-6.05a58.14,58.14,0,0,1,6.74-6.94c2.14-2.08,4-4.41,6.26-6.41,2.52-2.18,4.9-4.52,7.38-6.74,1.77-1.43,3.66-2.7,5.42-4.13s3.2-2.94,4.87-4.34c4.57-3.69,9.91-6.5,13.77-11a8.81,8.81,0,0,0,2.09-6.86c-.93-4.85-6.67-6.29-10.92-6.67-5.07-.2-9.84,1.53-14.62,3.07a48,48,0,0,0-7.33,2.72c-3.31,1.69-6.48,3.62-9.68,5.49-5.34,3-9.57,7.53-13.89,11.78a82.1,82.1,0,0,0-11.54,15.91,131.67,131.67,0,0,0-12.29,27c-.85,2.2-2.11,13-3.79,13.42a1.11,1.11,0,0,1-.91-.07c-2.2-1.16-2.38-4-2.87-6.16C4.5,405,4,401.22,3.1,397.51a91.34,91.34,0,0,1-.86-13.43c-.11-3.3-.19-6.6-.19-9.9,0-3.93.59-7.82.85-11.73.32-5,.87-10,1.45-15a68.8,68.8,0,0,1,1.33-8.69C7.45,331.6,10,324.89,15.93,320.2c2.4-2.09,5.32-3.38,7.94-5.15,4.63-3.15,9.88-4.33,15.29-5.8a52.64,52.64,0,0,1,12.48-2.44,134.14,134.14,0,0,1,14.18.16c6.17.23,11.94,2.54,17.37,5.31,4.13,2.15,11,4.46,15.13,1.27,2.72-2.27,2.22-6.31.35-9a21.2,21.2,0,0,0-7.31-6.84,50,50,0,0,0-9.82-5c-7-2.69-14.36-4.77-21.89-4.87A36.51,36.51,0,0,0,49.13,289a38.54,38.54,0,0,0-11.25,4.45c-2.37,1.3-4.54,2.91-6.81,4.36s-4.68,2.87-6.86,4.41C22,304,19.67,305.47,17.37,307a42.49,42.49,0,0,1-7.24,4.69,3.79,3.79,0,0,1-2.45.37,1,1,0,0,1-.39-.26,2.66,2.66,0,0,1-.06-2c.64-2.64,1.47-5.23,2.37-7.8s2-5.53,3.3-8.23c1-2,2-3.92,2.86-6,1.72-4,3.36-8.08,5.34-12A192.28,192.28,0,0,1,33,256.8a75.65,75.65,0,0,1,4.89-6.42c2-2.12,3.84-4.46,6-6.46,1.68-1.53,3.35-3.07,5.09-4.53,3.24-2.56,6.64-4.9,10.07-7.2a107,107,0,0,1,10.19-5.74,31.18,31.18,0,0,1,7.4-2.12,71.77,71.77,0,0,1,9.27-1.17,52.12,52.12,0,0,1,7.06.38c2.32.17,5,.46,7.36.84a68.42,68.42,0,0,1,19.93,5.8A54.36,54.36,0,0,1,127,234.1a52.78,52.78,0,0,1,9,7,43.26,43.26,0,0,1,5.92,7.16,55,55,0,0,1,4.66,7.58,15.51,15.51,0,0,1,.26,12.87,124.79,124.79,0,0,1-6.28,13.22c-4.59,8.52-9.14,17.24-13.74,25.78-3.74,6.6-7.64,13-10.84,19.95-3.48,7.55-6.49,15.31-9.23,23.16s-5.15,15.59-7.21,23.54c-.65,2.71-1.37,5.4-2.05,8.1a99.64,99.64,0,0,0-1.84,12.14,155.49,155.49,0,0,0-1,15.71A183.8,183.8,0,0,0,95,429.36c.15,5.39.26,11,1.4,16.41.76,3.83,1.7,7.63,2.45,11.47a41.9,41.9,0,0,0,2.2,7.63c1.19,3.55,2.57,7,4.09,10.44,1.35,3.38,2.68,6.77,4.32,10,1.73,4.22,4.43,8.19,6.16,12.43a74.58,74.58,0,0,0,3.92,8.22,28.26,28.26,0,0,0,2.94,3.61,25.35,25.35,0,0,0,5.56,5,4.67,4.67,0,0,0,2.88.57,1.38,1.38,0,0,0,.88-1.14,7.36,7.36,0,0,0-.73-3.38,77.17,77.17,0,0,0-4.14-7.64c-1-1.67-2.27-3.18-3.29-4.85-1.24-2-2.33-4.18-3.53-6.21a94.44,94.44,0,0,1-6.79-15.16,115.77,115.77,0,0,1-6.16-22.64c-.64-4.72-1.21-9.45-1.51-14.2-.36-9.19-.45-18.45-.41-27.66a179.73,179.73,0,0,1,3.32-30.17c1.87-7.4,4.3-14.66,6.82-21.87,1.54-4.18,3.39-8.26,5-12.41,2-5.23,4.22-10.37,6.74-15.37,2.45-5.15,5.19-10.06,8-15.06,2.14-4.1,4.27-8.28,6.37-12.42q5-8.94,9.35-18.22c2.59-5.65,5.08-11.52,5.7-17.76a17.4,17.4,0,0,1,4.53-1.68c1.27-.35,2.54-.73,3.84-1,4.15-.73,8.39-.77,12.51-1.69,4.7-.92,9.17-2.68,13.7-4.19a65.33,65.33,0,0,1,11.48-2.43,41.57,41.57,0,0,1,19.16,1.35,33.79,33.79,0,0,1,14.43,8,28.27,28.27,0,0,1,5.38,7A55.18,55.18,0,0,1,246.14,283.35Z"/></g></g></svg>