<svg xmlns="http://www.w3.org/2000/svg" viewBox="0 0 80.42 75.04"><defs><style>.cls-1{fill:#77b2d5;}</style></defs><title>shape5</title><g id="Layer_2" data-name="Layer 2"><g id="Layer_1-2" data-name="Layer 1"><path class="cls-1" d="M68.44,67.94a53.43,53.43,0,0,0,9.88-17.76,41.92,41.92,0,0,0,2-8.9A42.36,42.36,0,0,0,80,32.21c-.76-7.74-3.19-15.24-8.56-21a32,32,0,0,0-8-6.91A35.11,35.11,0,0,0,51.87.18C37.55-1.85,22.78,13.68,18.72,18,9.52,27.64-2.52,40.3.46,52.4,5.72,73.78,55.07,82.29,68.44,67.94Z"/></g></g></svg>