<svg xmlns="http://www.w3.org/2000/svg" viewBox="0 0 178.07 260.96"><defs><style>.cls-1{fill:#c8d07a;}</style></defs><title>shape6</title><g id="Layer_2" data-name="Layer 2"><g id="Layer_1-2" data-name="Layer 1"><path class="cls-1" d="M9.65,49.18Q8,52.36,6.54,55.6A74.93,74.93,0,0,0,1.46,72.32,82.88,82.88,0,0,0,0,84.47c-.19,6.61.92,13.14,1.49,19.7A159.27,159.27,0,0,0,6.16,128,201.75,201.75,0,0,0,15,156.24c2.64,6.9,5.28,13.82,8.47,20.49q3,5.73,6,11.45c1.71,3.18,3.91,6.06,5.69,9.2a117.7,117.7,0,0,0,6.57,11.37c2.51,3.44,4.85,7,7.38,10.43,3.63,4.6,7.18,9.3,11.22,13.55,2,2.15,4,4.39,6.09,6.46S71.12,243,73.32,245s4.26,4.21,6.65,6a61.2,61.2,0,0,0,10.65,6.06c6,2.87,11.34,4.92,18.09,3.35,6.36-.86,10.93-5.92,14.89-10.55,9-9.88,17.53-20.37,23.47-32.38,3.27-6.73,6.72-13.37,9.76-20.21,3.61-8.14,6-16.74,8.36-25.31,3.3-12.36,6.92-24.66,8.94-37.31,2-11,2.63-22.24,3.1-33.43.24-5.54.93-11.08.83-16.63a90.58,90.58,0,0,0-1.12-11.26,2.37,2.37,0,0,0,0-1.06c-.12-.92-.23-1.85-.4-2.76a101.94,101.94,0,0,0-5.19-17.61c-1.23-3.1-2.86-6-4.38-9a80.1,80.1,0,0,0-5.45-8.77c-1.32-1.87-3-3.48-4.32-5.32a49.45,49.45,0,0,0-14.58-12.93c-2.91-1.69-6.06-2.94-9.06-4.47a80,80,0,0,0-8.41-3.74A131.65,131.65,0,0,0,112,3C108.22,2,104.44,1.08,100.6.48a59.24,59.24,0,0,0-12-.32,93.76,93.76,0,0,0-21.09,2.9A62.6,62.6,0,0,0,57.17,6.41,83.71,83.71,0,0,0,44.5,13.26C41.74,15,39,16.86,36.4,18.81A100.5,100.5,0,0,0,27,27.19c-2.37,2.52-5,4.78-7.18,7.5A95.54,95.54,0,0,0,9.65,49.18Z"/></g></g></svg>