<svg xmlns="http://www.w3.org/2000/svg" viewBox="0 0 151.11 289.38"><defs><style>.cls-1{fill:#b8c698;}</style></defs><title>shape8</title><g id="Layer_2" data-name="Layer 2"><g id="Layer_1-2" data-name="Layer 1"><path class="cls-1" d="M92.81,244.84a161.12,161.12,0,0,0,1.54-28.55c-.27-5.5-.87-11-1.23-16.47a147.83,147.83,0,0,0-1.61-16.63c-1-6-2.32-11.95-3.49-17.93-2.25-11.39-6-22.42-9.92-33.31-2.1-5.39-4.48-10.67-6.57-16.06-2.88-6.92-5.76-13.84-9-20.6-3.44-7.08-7.2-14-11-20.92-4.17-8-9.56-15.28-14.74-22.65A147.43,147.43,0,0,0,19,31.39a89.72,89.72,0,0,0-10.6-8.1c-1.11-.8-2.22-1.6-3.35-2.38a28.82,28.82,0,0,0-1.34,3.53A41.59,41.59,0,0,0,1.83,42.83C3.21,50.47,7,57.47,11,64c2.85,4.1,6.07,8,8.7,12.22C24.48,82.65,29.31,89,34,95.49c2.35,3.43,5.13,6.53,7.43,10,3.28,5.13,6.46,10.33,9.33,15.71q2.81,5.58,5.28,11.32c1.44,3.11,2.52,6.39,3.65,9.61,2,5,3.91,10,5.5,15.11,2,8.11,4.09,16.21,5.29,24.48.79,4.72.8,9.56,1.22,14.28.17,2.54.12,5.08.17,7.62.11,3.92.26,7.84,0,11.76-1.09,14.08-3.09,28.08-4.46,42.13a81.5,81.5,0,0,0,1.09,20.1c.75,3.13,1.32,6.69,4.15,8.61a10,10,0,0,0,5.5,1.67,12.12,12.12,0,0,0,3.15-.78h0l.35-.39a34.77,34.77,0,0,0,4-7c1-2.35,1.66-4.85,2.47-7.27a71.78,71.78,0,0,0,3.38-14.09c.44-2.92,1.26-5.79,1.2-8.77,0-.87,0-1.74.06-2.61C92.78,246.25,93.12,245.46,92.81,244.84Zm56.82-117.42a68.76,68.76,0,0,1,1.48,13.18,114.9,114.9,0,0,1-.41,13c-.57,4.44-1.37,8.85-1.88,13.3s-1.42,8.59-2.09,12.89c-.44,2.81-.92,5.62-1.63,8.38-2.48,10-6.25,19.62-10.18,29.13-3.22,8.06-7,15.89-11,23.59a146.7,146.7,0,0,1-12,18.53c-1.72,2.34-3.31,4.77-5.25,6.94s-4,3.95-5.83,6c-3.7,4.1-7.16,8.46-11.68,11.69-3,2.21-6.3,4.66-10,5.19a9.44,9.44,0,0,1-2.26.07c-6.91-1-8.67-5.36-9.88-11.56A86.47,86.47,0,0,1,65.88,269c-.13-2.89,0-5.8,0-8.7,0-3.43.6-6.8.88-10.2,1.15-11.15,2.65-22.38,3.61-33.52.41-5.37,0-10.74,0-16.11,0-2.89-.22-5.57-.43-8.39A88.24,88.24,0,0,0,69,181.8c-1-7.3-2.86-14.38-4.58-21.53C63.21,155,61,149.9,59.15,144.8c-1.42-3.34-2.3-6.83-3.79-10.11A156.23,156.23,0,0,0,42.49,110c-2.94-5.16-6.89-9.58-10.29-14.42-3.1-4.24-6.3-8.4-9.36-12.67-2.24-2.88-4.52-5.91-6.45-9-3.33-4.79-7.21-9.21-9.8-14.48a54.6,54.6,0,0,1-5.19-12A27.75,27.75,0,0,1,0,39.4,45.1,45.1,0,0,1,3.81,20,27.23,27.23,0,0,1,9.56,11.9a26.14,26.14,0,0,1,8-5.23C21.13,4,25.5,2.79,29.68,1.42A42.42,42.42,0,0,1,35.8.12a39.79,39.79,0,0,1,6,0c.46,0,.93,0,1.39.05.74,0,1.48-.05,2.22,0C48,.3,50.66.58,53.26,1A67.34,67.34,0,0,1,65.05,3.86,73.3,73.3,0,0,1,74.9,8.51a111.49,111.49,0,0,1,10.52,7.56C87.76,18,90,20,92.29,22c2.81,2.79,5.7,5.5,8.32,8.48a165.07,165.07,0,0,1,13.77,18.24c3.42,5.42,7,10.78,9.54,16.67.41.8.81,1.61,1.2,2.41,1.23,2.16,2.47,4.33,3.73,6.47,4.69,8.44,9.05,17.08,13,25.9A154.27,154.27,0,0,1,149.63,127.42Z"/></g></g></svg>