<svg xmlns="http://www.w3.org/2000/svg" viewBox="0 0 206.56 284.92"><defs><style>.cls-1{fill:#659357;}</style></defs><title>shape9</title><g id="Layer_2" data-name="Layer 2"><g id="Layer_1-2" data-name="Layer 1"><path class="cls-1" d="M189.09,282c-6.91-1-8.67-5.36-9.88-11.56a86.47,86.47,0,0,1-1.17-8.78c-.14-2.9,0-5.8,0-8.7,0-3.43.59-6.8.88-10.21,1.15-11.14,2.65-22.37,3.61-33.52.41-5.36,0-10.73,0-16.1,0-2.9-.22-5.57-.43-8.4a88.25,88.25,0,0,0-.93-10.27c-1-7.3-2.86-14.38-4.58-21.53-1.21-5.32-3.38-10.37-5.26-15.47-1.42-3.34-2.3-6.83-3.79-10.11a157.17,157.17,0,0,0-12.87-24.72c-2.94-5.15-6.89-9.58-10.29-14.41-3.1-4.24-6.3-8.4-9.36-12.68-2.24-2.88-4.52-5.9-6.45-9-3.33-4.8-7.21-9.22-9.81-14.49a55,55,0,0,1-5.18-11.94,27.87,27.87,0,0,1-1.4-8.08A45.17,45.17,0,0,1,116,12.67c-1-.7-2.09-1.37-3.17-2a71,71,0,0,0-11.08-5.06C98.37,4.38,95,3.21,91.54,2.28A86.73,86.73,0,0,0,80.79.48,42.41,42.41,0,0,0,65.15,1,73.14,73.14,0,0,0,43,11c-2.77,1.82-5.56,3.62-8.17,5.66A86.57,86.57,0,0,0,23.72,27.4,121.68,121.68,0,0,0,13.64,42.86c-3.7,6.4-7.26,12.93-9.35,20.07a91.94,91.94,0,0,0-4.22,32c.3,5.32,1.1,10.59,1.92,15.85.69,4.34,1.26,8.7,2.22,13a138.92,138.92,0,0,0,8.34,24.89,137.35,137.35,0,0,0,8.09,15.26c2.36,3.64,5.19,6.93,7.77,10.4A161.91,161.91,0,0,0,39.09,187.7q5.69,6.69,11.86,12.91a68.11,68.11,0,0,0,9,8.26c3.31,2.73,6.68,5.39,10.21,7.82,6,4.25,12.54,7.74,18.81,11.61,3.73,2.2,7.52,4.31,11.31,6.39,6.2,3.43,12.16,7.31,18.53,10.45a129.9,129.9,0,0,1,16.71,9.39,83.48,83.48,0,0,1,7.07,4.86,77.74,77.74,0,0,1,6.34,5c2.9,2.54,5.74,5,8.61,7.62,3.05,2.79,6,5.76,9.56,7.88a32.86,32.86,0,0,0,9.29,4.54,25.15,25.15,0,0,0,6.54.52,13.86,13.86,0,0,0,6.85-1.91,9.61,9.61,0,0,0,1.6-1.09A10.62,10.62,0,0,1,189.09,282Z"/><path class="cls-1" d="M206.5,208.93c-.26-5.5-.86-11-1.22-16.47a150.61,150.61,0,0,0-1.61-16.64c-.95-6-2.32-11.95-3.49-17.92-2.25-11.39-6-22.43-9.92-33.31-2.1-5.4-4.48-10.67-6.57-16.07-2.88-6.91-5.77-13.83-9-20.6-3.45-7.08-7.21-14-11-20.91-4.16-8-9.55-15.29-14.74-22.66A147.27,147.27,0,0,0,131.18,24a87.68,87.68,0,0,0-10.59-8.09c-1.11-.8-2.22-1.6-3.35-2.39a30.11,30.11,0,0,0-1.34,3.53A41.62,41.62,0,0,0,114,35.46c1.38,7.65,5.12,14.64,9.19,21.16,2.86,4.1,6.08,8,8.71,12.21,4.74,6.45,9.57,12.84,14.3,19.3,2.36,3.42,5.14,6.52,7.43,10,3.29,5.13,6.46,10.34,9.33,15.72,1.87,3.71,3.63,7.49,5.29,11.31,1.44,3.12,2.51,6.4,3.65,9.62,1.94,5,3.9,10,5.5,15.11,2,8.11,4.08,16.21,5.29,24.48.79,4.72.79,9.56,1.22,14.28.17,2.53.12,5.08.17,7.62.11,3.91.26,7.84,0,11.75-1.09,14.08-3.1,28.09-4.46,42.14a80.92,80.92,0,0,0,1.09,20.09c.75,3.14,1.31,6.7,4.14,8.61a9.94,9.94,0,0,0,5.51,1.67,11.71,11.71,0,0,0,3.15-.77h0l.35-.4a34.23,34.23,0,0,0,4-7c1-2.35,1.65-4.84,2.47-7.27a71,71,0,0,0,3.37-14.08c.45-2.93,1.27-5.79,1.2-8.77,0-.87,0-1.75.06-2.61,0-.68.32-1.46,0-2.08A160.18,160.18,0,0,0,206.5,208.93Z"/></g></g></svg>