<svg xmlns="http://www.w3.org/2000/svg" viewBox="0 0 165.88 232.72"><defs><style>.cls-1{fill:#b8c698;}</style></defs><title>shape3</title><g id="Layer_2" data-name="Layer 2"><g id="Layer_1-2" data-name="Layer 1"><path class="cls-1" d="M165.44,80c-.5,5.77-1.13,11.59-3.09,17.09-1.47,4.59-3.5,8.88-5.08,13.39a180.3,180.3,0,0,1-7.54,18.16c-3.3,6.29-6.56,12.61-10.45,18.56-5.19,8.11-10.47,16.18-16.38,23.79-3.65,4.79-7.28,9.6-11.32,14.08-3.55,3.66-6.75,7.65-10.36,11.25C94.06,203,86.91,209.83,78.7,215.24c-4.89,3.06-9.3,6.85-14.51,9.35A87.05,87.05,0,0,1,51.57,230a43.61,43.61,0,0,1-13.29,2.74c-3.68-.14-7.44-.26-11-1.46a34.3,34.3,0,0,1-12.53-6.41c-5.76-5.27-8.31-13-9.87-20.5A316.8,316.8,0,0,1,.51,170.89c-.82-8.1-.5-16.24-.11-24.36.4-7.15.72-14.34,1.67-21.46.73-4.85,1.61-9.68,2.44-14.52A202.62,202.62,0,0,1,11,82.15c1.78-5.79,4.08-11.4,6.13-17.1A103.66,103.66,0,0,1,25.26,48.9c2.53-4.18,5.48-8.08,8.34-12C35,34.94,36.34,33,37.76,31.13a105.81,105.81,0,0,1,9.82-10.7A88.7,88.7,0,0,1,64.32,6.54,48.12,48.12,0,0,1,77.19,1.59,52.36,52.36,0,0,1,94.83.19,64.9,64.9,0,0,1,113.07,3.3a69.21,69.21,0,0,1,11.71,4.28,47.11,47.11,0,0,1,8.47,5.88,30,30,0,0,1,5,3.79c2,1.79,3.73,3.73,5.72,5.46,1.7,1.43,3.45,2.81,5,4.41a26.69,26.69,0,0,1,2.93,3.52c1.41,2.19,2.54,4.56,3.86,6.81,3.55,6.57,7,13.28,8.91,20.53C166.28,65.19,166,72.67,165.44,80Z"/></g></g></svg>