<svg xmlns="http://www.w3.org/2000/svg" viewBox="0 0 79.38 72.64"><defs><style>.cls-1{fill:#659357;}</style></defs><title>shape4</title><g id="Layer_2" data-name="Layer 2"><g id="Layer_1-2" data-name="Layer 1"><path class="cls-1" d="M26.7.82A53.63,53.63,0,0,1,47,1.13a41.19,41.19,0,0,1,8.69,2.73,41.63,41.63,0,0,1,7.7,4.79C69.76,13.17,75,19,77.39,26.56a32.39,32.39,0,0,1,2,10.38A35.07,35.07,0,0,1,77.16,49C71.77,62.42,50.94,67.47,45.21,68.85c-13,3.15-30,7.26-39-1.36C-9.65,52.26,7.6,5.25,26.7.82Z"/></g></g></svg>