<svg xmlns="http://www.w3.org/2000/svg" viewBox="0 0 74.35 82.18"><defs><style>.cls-1{fill:#77b2d5;}</style></defs><title>shape7</title><g id="Layer_2" data-name="Layer 2"><g id="Layer_1-2" data-name="Layer 1"><path class="cls-1" d="M3.59,18.47A53.43,53.43,0,0,1,19.11,5.34a41.79,41.79,0,0,1,8.34-3.65,41.78,41.78,0,0,1,9-1.45C44.16-.52,52,.42,58.71,4.56A32.35,32.35,0,0,1,67,11.07a35,35,0,0,1,6.24,10.55c4.77,13.66-7.62,31.15-11,36C54.53,68.49,44.44,82.74,32,82.16,10,81.13-7.9,34.36,3.59,18.47Z"/></g></g></svg>