<svg xmlns="http://www.w3.org/2000/svg" viewBox="0 0 69.57 71.34"><defs><style>.cls-1{fill:#c8d07a;}</style></defs><title>shape2</title><g id="Layer_2" data-name="Layer 2"><g id="Layer_1-2" data-name="Layer 1"><path class="cls-1" d="M58,65.21A49.07,49.07,0,0,1,40.34,71a38.16,38.16,0,0,1-8.34.21,38.22,38.22,0,0,1-8.1-1.86c-6.83-2-13.14-5.54-17.41-11.37a29.47,29.47,0,0,1-4.81-8.39A32.16,32.16,0,0,1,0,38.46C.71,25.24,17.25,14.68,21.8,11.78,32.11,5.2,45.59-3.4,56,1.39,74.25,9.86,73.26,55.7,58,65.21Z"/></g></g></svg>