<svg xmlns="http://www.w3.org/2000/svg" viewBox="0 0 149.48 258.09"><defs><style>.cls-1{fill:#77b2d5;}</style></defs><title>shape1</title><g id="Layer_2" data-name="Layer 2"><g id="Layer_1-2" data-name="Layer 1"><path class="cls-1" d="M149.39,242a14.72,14.72,0,0,1-6.15,13.64c-3.13,1.86-6.9,2.06-10.45,2.3a65.09,65.09,0,0,1-15.41-.86c-3-.61-5.86-1.56-8.76-2.4-4.56-1.36-9.13-2.67-13.66-4.11-3.09-1-6-2.21-9.06-3.23-4.68-1.45-9.05-3.69-13.49-5.7-4.24-2-8.47-4.06-12.74-6-4-2-7.73-4.54-11.6-6.8a46.78,46.78,0,0,1-8-6.38c-3.45-3.23-6.88-6.49-10.14-9.91A115.61,115.61,0,0,1,17.71,196c-1.63-2.79-3-5.72-4.37-8.63-1.61-3.37-3.24-6.74-4.54-10.25-1.85-5.31-3.32-10.68-5.14-16A101.55,101.55,0,0,1,.05,134.43a214.56,214.56,0,0,1,2.9-38,146.28,146.28,0,0,1,9.28-33.78,143.17,143.17,0,0,1,8-17.6A99,99,0,0,1,55,10a80.12,80.12,0,0,1,14.7-6.68,58.36,58.36,0,0,1,12.41-3A58,58,0,0,1,95.55.5a75.57,75.57,0,0,1,15.1,3.26,102.07,102.07,0,0,1,14.26,5.93A25.57,25.57,0,0,1,138.5,22.41a44.58,44.58,0,0,1,3.37,18.69c-.13,4.19-1.26,8.27-2,12.39-.75,3.7-1.47,7.41-2.37,11.09-1.27,5-2.26,10.16-3.36,15.25-1.59,6.23-3.13,12.41-4.24,18.73a85.19,85.19,0,0,0-1.72,13.26c-.18,3.71-.55,7.42-.7,11.13-.14,5-.17,10-.33,15-.06,5.27.26,10.34.63,15.55A295.41,295.41,0,0,0,132,185.11c.63,3.62,1.44,7.21,2.18,10.81s1.41,7.27,2.5,10.81c2.42,7,5.24,13.76,8,20.59C146.6,232.1,148.84,236.86,149.39,242Z"/></g></g></svg>