<svg xmlns="http://www.w3.org/2000/svg" viewBox="0 0 169.89 44.49"><defs><style>.cls-1{fill:#ff70b0;}.cls-2{fill:#4fa6ff;}.cls-3{fill:#ffb66b;}.cls-4{fill:#6d66ff;}</style></defs><title>logo</title><g id="Layer_2" data-name="Layer 2"><g id="Layer_1-2" data-name="Layer 1"><path d="M42,28.05V19.4h.43a.34.34,0,0,1,.22.06.29.29,0,0,1,.07.21l.07,1.82a4.1,4.1,0,0,1,1.11-1.64,2.55,2.55,0,0,1,1.71-.6,3.26,3.26,0,0,1,.73.08,3.07,3.07,0,0,1,.62.24l-.11.58a.16.16,0,0,1-.17.14.56.56,0,0,1-.15,0l-.24-.08-.35-.08a3.43,3.43,0,0,0-.48,0,2.19,2.19,0,0,0-1.61.61,4.43,4.43,0,0,0-1,1.75v5.63Z"/><path d="M52.15,19.26a3.49,3.49,0,0,1,1.35.25,3.07,3.07,0,0,1,1.08.74,3.38,3.38,0,0,1,.71,1.18,4.75,4.75,0,0,1,.26,1.62.41.41,0,0,1-.06.26.21.21,0,0,1-.18.07H49.07v.16a6,6,0,0,0,.23,1.72,3.55,3.55,0,0,0,.64,1.24,2.76,2.76,0,0,0,1,.75,3.27,3.27,0,0,0,1.32.25A3.75,3.75,0,0,0,54.2,27a3.19,3.19,0,0,0,.52-.32.63.63,0,0,1,.28-.14.19.19,0,0,1,.17.09l.23.27a2.21,2.21,0,0,1-.55.49,4.27,4.27,0,0,1-.77.39,5,5,0,0,1-.9.25,4.57,4.57,0,0,1-1,.1,4.07,4.07,0,0,1-1.62-.31,3.36,3.36,0,0,1-1.25-.9,4,4,0,0,1-.81-1.45,6.18,6.18,0,0,1-.28-2,5.48,5.48,0,0,1,.26-1.71,3.86,3.86,0,0,1,.77-1.36,3.53,3.53,0,0,1,1.22-.89A4.12,4.12,0,0,1,52.15,19.26Zm0,.62a3.29,3.29,0,0,0-1.2.21,2.41,2.41,0,0,0-.91.6,3.05,3.05,0,0,0-.63.93,4.27,4.27,0,0,0-.31,1.23H54.8a3.77,3.77,0,0,0-.19-1.25,2.65,2.65,0,0,0-.54-.93,2.33,2.33,0,0,0-.83-.59A2.92,2.92,0,0,0,52.16,19.88Z"/><path d="M63.29,28.05A.3.3,0,0,1,63,27.8l-.12-1.1c-.24.23-.48.44-.71.63a4.43,4.43,0,0,1-.73.46,3.72,3.72,0,0,1-.83.3,4.9,4.9,0,0,1-1,.1,3,3,0,0,1-.86-.13,2.29,2.29,0,0,1-.74-.4,1.86,1.86,0,0,1-.52-.7,2.36,2.36,0,0,1-.2-1,1.78,1.78,0,0,1,.32-1,2.47,2.47,0,0,1,1-.82,6.46,6.46,0,0,1,1.71-.56,14.44,14.44,0,0,1,2.51-.24v-.9a2.93,2.93,0,0,0-.51-1.85,1.87,1.87,0,0,0-1.54-.65,3,3,0,0,0-1.06.17,4,4,0,0,0-.75.39,4.7,4.7,0,0,0-.49.38.52.52,0,0,1-.32.17.27.27,0,0,1-.26-.15l-.15-.25a4.92,4.92,0,0,1,1.42-1,4,4,0,0,1,1.7-.35,3.28,3.28,0,0,1,1.22.22,2.29,2.29,0,0,1,.86.64,2.79,2.79,0,0,1,.52,1,4.78,4.78,0,0,1,.17,1.31v5.63Zm-3.48-.46a3.83,3.83,0,0,0,.93-.11,3.34,3.34,0,0,0,.78-.31,3.87,3.87,0,0,0,.68-.46c.2-.18.41-.38.61-.58V23.88a15.14,15.14,0,0,0-2.12.18,6.1,6.1,0,0,0-1.47.41,2.17,2.17,0,0,0-.85.63,1.27,1.27,0,0,0-.28.82,1.73,1.73,0,0,0,.15.75,1.43,1.43,0,0,0,.38.52,1.3,1.3,0,0,0,.54.3A2.38,2.38,0,0,0,59.81,27.59Z"/><path d="M71.92,20.55a.6.6,0,0,1-.08.08.18.18,0,0,1-.11,0,.44.44,0,0,1-.24-.12,2.57,2.57,0,0,0-.4-.25,3.15,3.15,0,0,0-.63-.26,3.07,3.07,0,0,0-.92-.12,3.13,3.13,0,0,0-1.33.27,2.65,2.65,0,0,0-1,.76,3.56,3.56,0,0,0-.6,1.2,5.49,5.49,0,0,0-.21,1.58,5.56,5.56,0,0,0,.21,1.61,3.27,3.27,0,0,0,.61,1.19,2.6,2.6,0,0,0,.94.74,3.08,3.08,0,0,0,1.24.25,3.13,3.13,0,0,0,1-.15,3.58,3.58,0,0,0,.7-.32,3,3,0,0,0,.43-.32.47.47,0,0,1,.26-.15.19.19,0,0,1,.17.09l.23.27a2.33,2.33,0,0,1-.5.49,3.85,3.85,0,0,1-.69.39,4.24,4.24,0,0,1-.83.26,4.73,4.73,0,0,1-.93.09,3.7,3.7,0,0,1-1.51-.3A3.27,3.27,0,0,1,66.62,27a4.13,4.13,0,0,1-.76-1.39,6.05,6.05,0,0,1-.27-1.88,5.78,5.78,0,0,1,.26-1.81,4,4,0,0,1,.76-1.41,3.34,3.34,0,0,1,1.22-.91,4,4,0,0,1,1.67-.33,3.93,3.93,0,0,1,1.5.27,3.77,3.77,0,0,1,1.14.73Z"/><path d="M76.49,28.19a1.85,1.85,0,0,1-1.36-.49,2,2,0,0,1-.49-1.5V20.29H73.4a.23.23,0,0,1-.16-.06.17.17,0,0,1-.06-.14v-.33l1.48-.1.21-3.09a.18.18,0,0,1,.06-.14.2.2,0,0,1,.15-.06h.39v3.3h2.72v.62H75.47v5.86a1.82,1.82,0,0,0,.09.61,1.06,1.06,0,0,0,.25.43,1,1,0,0,0,.38.24,1.4,1.4,0,0,0,.47.08,1.45,1.45,0,0,0,.54-.09,2.36,2.36,0,0,0,.39-.2l.27-.2a.29.29,0,0,1,.16-.09.19.19,0,0,1,.14.08l.23.37a2.33,2.33,0,0,1-.84.58A2.59,2.59,0,0,1,76.49,28.19Z"/><path d="M84.76,19.4v9.75a2.84,2.84,0,0,1-.13.84,2,2,0,0,1-.39.66,1.63,1.63,0,0,1-.64.44,2.31,2.31,0,0,1-.91.16,2,2,0,0,1-.45,0,1.64,1.64,0,0,1-.39-.14l0-.42a.11.11,0,0,1,.12-.1l.2,0a1.05,1.05,0,0,0,.34,0,1.32,1.32,0,0,0,1-.38,1.58,1.58,0,0,0,.34-1.09V19.4Zm.36-3a.72.72,0,0,1-.06.29,1,1,0,0,1-.17.24.82.82,0,0,1-.54.22.8.8,0,0,1-.3-.06.74.74,0,0,1-.4-.4.59.59,0,0,1-.07-.29.6.6,0,0,1,.07-.3.72.72,0,0,1,.16-.25.78.78,0,0,1,.24-.16.82.82,0,0,1,.3-.07.73.73,0,0,1,.29.07.72.72,0,0,1,.25.16.92.92,0,0,1,.17.25A.73.73,0,0,1,85.12,16.42Z"/><path d="M88.39,19.4v5.53a3,3,0,0,0,.56,1.9,2.06,2.06,0,0,0,1.7.7,3.06,3.06,0,0,0,1.58-.44,4.47,4.47,0,0,0,1.32-1.19V19.4h.82v8.65h-.45c-.16,0-.25-.08-.25-.23l-.08-1.29a4.93,4.93,0,0,1-1.39,1.2,3.39,3.39,0,0,1-1.75.46A3.27,3.27,0,0,1,89.18,28a2.34,2.34,0,0,1-.89-.65,2.89,2.89,0,0,1-.54-1,4.69,4.69,0,0,1-.18-1.35V19.4Z"/><path d="M102,20.48a.21.21,0,0,1-.19.12.48.48,0,0,1-.25-.11,3.8,3.8,0,0,0-.4-.24,3.64,3.64,0,0,0-.61-.25,3.15,3.15,0,0,0-.88-.11,2.63,2.63,0,0,0-.86.14,2.33,2.33,0,0,0-.66.36,1.61,1.61,0,0,0-.42.52,1.39,1.39,0,0,0-.15.63,1.08,1.08,0,0,0,.2.68,1.8,1.8,0,0,0,.55.46,5.57,5.57,0,0,0,.77.33l.88.27c.3.1.6.2.88.31a3.74,3.74,0,0,1,.77.42,2,2,0,0,1,.55.62,1.78,1.78,0,0,1,.21.89,2.63,2.63,0,0,1-.21,1.05,2.44,2.44,0,0,1-.58.84,2.85,2.85,0,0,1-1,.57,3.62,3.62,0,0,1-1.28.21,3.81,3.81,0,0,1-1.58-.3,4.19,4.19,0,0,1-1.18-.76l.2-.29a.36.36,0,0,1,.1-.11.26.26,0,0,1,.14,0,.49.49,0,0,1,.28.14,5.08,5.08,0,0,0,.43.3,3.41,3.41,0,0,0,.66.3,3.08,3.08,0,0,0,1,.14,2.86,2.86,0,0,0,1-.15A2.06,2.06,0,0,0,101,27a1.59,1.59,0,0,0,.42-.61,1.85,1.85,0,0,0,.15-.74,1.18,1.18,0,0,0-.21-.72,1.63,1.63,0,0,0-.55-.49,3.89,3.89,0,0,0-.77-.34l-.89-.28c-.3-.09-.6-.19-.88-.3a3,3,0,0,1-.77-.42A2,2,0,0,1,97,22.5a1.76,1.76,0,0,1-.21-.9,2.14,2.14,0,0,1,.2-.89,2.57,2.57,0,0,1,.57-.75,3,3,0,0,1,.9-.51,3.42,3.42,0,0,1,1.19-.19,4.09,4.09,0,0,1,1.41.23,3.5,3.5,0,0,1,1.12.7Z"/><path d="M107,28.19a1.88,1.88,0,0,1-1.37-.49,2.06,2.06,0,0,1-.49-1.5V20.29h-1.24a.25.25,0,0,1-.16-.06.17.17,0,0,1-.06-.14v-.33l1.48-.1.21-3.09a.22.22,0,0,1,.06-.14.2.2,0,0,1,.15-.06H106v3.3h2.72v.62H106v5.86a1.82,1.82,0,0,0,.09.61,1.19,1.19,0,0,0,.25.43,1,1,0,0,0,.38.24,1.54,1.54,0,0,0,1,0,2.36,2.36,0,0,0,.39-.2l.27-.2a.28.28,0,0,1,.17-.09.19.19,0,0,1,.13.08l.23.37a2.33,2.33,0,0,1-.84.58A2.58,2.58,0,0,1,107,28.19Z"/><path d="M114.21,31.11V19.4h.45a.36.36,0,0,1,.19.05.21.21,0,0,1,.07.17L115,21a4.44,4.44,0,0,1,1.35-1.25,3.33,3.33,0,0,1,1.72-.46,3,3,0,0,1,2.49,1.11,5.21,5.21,0,0,1,.88,3.31,6.31,6.31,0,0,1-.24,1.77,4.34,4.34,0,0,1-.73,1.42,3.42,3.42,0,0,1-1.18.95,3.57,3.57,0,0,1-1.61.35,3.45,3.45,0,0,1-1.53-.32,3.07,3.07,0,0,1-1.11-1v4.23Zm3.63-11.19a2.79,2.79,0,0,0-1.56.45A4.22,4.22,0,0,0,115,21.62v4.53a2.87,2.87,0,0,0,1.1,1.05,2.91,2.91,0,0,0,1.37.31,3,3,0,0,0,1.34-.28,2.55,2.55,0,0,0,1-.79,3.69,3.69,0,0,0,.59-1.21,6,6,0,0,0,.19-1.56,4.61,4.61,0,0,0-.71-2.84A2.42,2.42,0,0,0,117.84,19.92Z"/><path d="M129,28.05a.3.3,0,0,1-.32-.25l-.12-1.1c-.24.23-.48.44-.71.63a4.12,4.12,0,0,1-.74.46,3.64,3.64,0,0,1-.82.3,4.92,4.92,0,0,1-1,.1,3.14,3.14,0,0,1-.86-.13,2.35,2.35,0,0,1-.73-.4,1.86,1.86,0,0,1-.52-.7,2.36,2.36,0,0,1-.2-1,1.78,1.78,0,0,1,.32-1,2.43,2.43,0,0,1,1-.82,6.67,6.67,0,0,1,1.72-.56,14.34,14.34,0,0,1,2.51-.24v-.9a2.87,2.87,0,0,0-.52-1.85,1.83,1.83,0,0,0-1.53-.65,3,3,0,0,0-1.06.17,4,4,0,0,0-.75.39,3.83,3.83,0,0,0-.49.38.52.52,0,0,1-.32.17.27.27,0,0,1-.26-.15l-.15-.25a4.79,4.79,0,0,1,1.42-1,4,4,0,0,1,1.7-.35,3.19,3.19,0,0,1,1.21.22,2.24,2.24,0,0,1,.87.64,2.79,2.79,0,0,1,.52,1,4.78,4.78,0,0,1,.17,1.31v5.63Zm-3.48-.46a3.83,3.83,0,0,0,.93-.11,3.34,3.34,0,0,0,.78-.31,3.46,3.46,0,0,0,.67-.46c.21-.18.42-.38.62-.58V23.88a15.14,15.14,0,0,0-2.12.18,6.1,6.1,0,0,0-1.47.41,2.17,2.17,0,0,0-.85.63,1.27,1.27,0,0,0-.28.82,1.73,1.73,0,0,0,.15.75,1.53,1.53,0,0,0,.37.52,1.41,1.41,0,0,0,.55.3A2.38,2.38,0,0,0,125.55,27.59Z"/><path d="M132,28.05V19.4h.43a.34.34,0,0,1,.22.06.34.34,0,0,1,.07.21l.07,1.82a4.1,4.1,0,0,1,1.11-1.64,2.53,2.53,0,0,1,1.71-.6,3.24,3.24,0,0,1,.72.08,3.41,3.41,0,0,1,.63.24l-.11.58a.17.17,0,0,1-.18.14l-.14,0-.24-.08-.36-.08a3.18,3.18,0,0,0-.47,0,2.22,2.22,0,0,0-1.62.61,4.31,4.31,0,0,0-1,1.75v5.63Z"/><path d="M144,28.05a.3.3,0,0,1-.32-.25l-.12-1.1c-.24.23-.47.44-.71.63a4.05,4.05,0,0,1-.73.46,3.72,3.72,0,0,1-.83.3,4.82,4.82,0,0,1-1,.1,3,3,0,0,1-.86-.13,2.29,2.29,0,0,1-.74-.4,1.86,1.86,0,0,1-.52-.7,2.37,2.37,0,0,1-.19-1,1.77,1.77,0,0,1,.31-1,2.47,2.47,0,0,1,1-.82,6.46,6.46,0,0,1,1.71-.56,14.54,14.54,0,0,1,2.51-.24v-.9a2.93,2.93,0,0,0-.51-1.85,1.87,1.87,0,0,0-1.54-.65,3,3,0,0,0-1.06.17,3.91,3.91,0,0,0-.74.39,4,4,0,0,0-.5.38.5.5,0,0,1-.32.17.28.28,0,0,1-.26-.15l-.15-.25a4.83,4.83,0,0,1,1.43-1,4,4,0,0,1,1.69-.35,3.28,3.28,0,0,1,1.22.22,2.29,2.29,0,0,1,.86.64,2.79,2.79,0,0,1,.52,1,4.78,4.78,0,0,1,.17,1.31v5.63Zm-3.47-.46a3.8,3.8,0,0,0,.92-.11,3.34,3.34,0,0,0,.78-.31,3.87,3.87,0,0,0,.68-.46c.21-.18.41-.38.61-.58V23.88a15.14,15.14,0,0,0-2.12.18,6.38,6.38,0,0,0-1.47.41,2.24,2.24,0,0,0-.85.63,1.32,1.32,0,0,0-.27.82,1.73,1.73,0,0,0,.14.75,1.43,1.43,0,0,0,.38.52,1.37,1.37,0,0,0,.54.3A2.39,2.39,0,0,0,140.48,27.59Z"/><path d="M148,15.4V28.05h-.83V15.4Z"/><path d="M152.09,15.4V28.05h-.83V15.4Z"/><path d="M160.67,28.05a.3.3,0,0,1-.33-.25l-.12-1.1c-.24.23-.47.44-.71.63a4.05,4.05,0,0,1-.73.46,3.72,3.72,0,0,1-.83.3,4.82,4.82,0,0,1-1,.1,3.09,3.09,0,0,1-.86-.13,2.29,2.29,0,0,1-.74-.4,2,2,0,0,1-.52-.7,2.37,2.37,0,0,1-.19-1,1.77,1.77,0,0,1,.31-1,2.54,2.54,0,0,1,1-.82,6.46,6.46,0,0,1,1.71-.56,14.57,14.57,0,0,1,2.52-.24v-.9a2.93,2.93,0,0,0-.52-1.85,1.85,1.85,0,0,0-1.53-.65,3,3,0,0,0-1.07.17,3.91,3.91,0,0,0-.74.39,5,5,0,0,0-.5.38.48.48,0,0,1-.32.17.29.29,0,0,1-.26-.15l-.15-.25a4.83,4.83,0,0,1,1.43-1,4,4,0,0,1,1.69-.35,3.24,3.24,0,0,1,1.22.22,2.14,2.14,0,0,1,.86.64,2.64,2.64,0,0,1,.52,1,4.41,4.41,0,0,1,.18,1.31v5.63Zm-3.48-.46a3.8,3.8,0,0,0,.92-.11,3.25,3.25,0,0,0,.79-.31,3.79,3.79,0,0,0,.67-.46c.21-.18.41-.38.62-.58V23.88a15.3,15.3,0,0,0-2.13.18,6.38,6.38,0,0,0-1.47.41,2.24,2.24,0,0,0-.85.63,1.32,1.32,0,0,0-.27.82,1.89,1.89,0,0,0,.14.75,1.56,1.56,0,0,0,.38.52,1.41,1.41,0,0,0,.55.3A2.32,2.32,0,0,0,157.19,27.59Z"/><path d="M165.63,23.62l-3-4.22h.79a.3.3,0,0,1,.18.05l.1.12,2.54,3.67a.8.8,0,0,1,.15-.31l2.37-3.35a.45.45,0,0,1,.11-.13.25.25,0,0,1,.15-.05h.76l-3,4.18,3.14,4.47h-.79a.26.26,0,0,1-.19-.08,1.34,1.34,0,0,1-.11-.14L166.17,24a.84.84,0,0,1-.12.29l-2.53,3.55-.12.14a.25.25,0,0,1-.16.06h-.74Z"/><rect class="cls-1" y="3.22" width="7.47" height="35.89" rx="3.69" ry="3.69"/><rect class="cls-2" x="7.47" y="8.59" width="7.47" height="35.89" rx="3.69" ry="3.69"/><rect class="cls-3" x="14.95" width="7.47" height="35.89" rx="3.69" ry="3.69"/><rect class="cls-4" x="22.42" y="3.43" width="7.47" height="35.89" rx="3.69" ry="3.69"/></g></g></svg>